<?xml version="1.0" encoding="UTF-8" standalone="no"?><!-- Generator: Gravit.io --><svg xmlns="http://www.w3.org/2000/svg" xmlns:xlink="http://www.w3.org/1999/xlink" style="isolation:isolate" viewBox="0 0 2834.646 2834.646" width="2834.646pt" height="2834.646pt"><defs><clipPath id="_clipPath_dA8vgHuUoS7MzvPAfSvLgIilE31vxnLz"><rect width="2834.646" height="2834.646"/></clipPath></defs><g clip-path="url(#_clipPath_dA8vgHuUoS7MzvPAfSvLgIilE31vxnLz)"><rect width="2834.646" height="2834.646" style="fill:rgb(0,0,0)" fill-opacity="0"/><circle vector-effect="non-scaling-stroke" cx="1417.3228346456694" cy="1417.3228346456694" r="1417.3228346456694" fill="rgb(16,0,42)"/><g><path d=" M 2749.606 1417.323 C 2749.606 1455.158 2748.044 1492.623 2744.92 1529.667 C 2728.42 1727.835 2668.587 1913.635 2574.892 2077.606 C 2571.307 2083.881 2567.663 2090.115 2563.998 2096.329 C 2552.524 2115.793 2540.49 2134.936 2527.954 2153.739 L 2527.954 2153.779 C 2524.51 2158.95 2521.046 2164.082 2517.522 2169.214 C 2513.476 2175.187 2509.331 2181.06 2505.186 2186.954 C 2496.936 2198.68 2488.426 2210.286 2479.695 2221.752 C 2471.065 2233.198 2462.213 2244.524 2453.102 2255.669 C 2448.617 2261.242 2444.032 2266.794 2439.426 2272.287 C 2430.274 2283.312 2420.883 2294.176 2411.292 2304.86 C 2407.787 2308.809 2404.242 2312.758 2400.598 2316.687 C 2399.377 2318.05 2398.155 2319.393 2396.814 2320.776 C 2391.968 2326.068 2387.041 2331.32 2382.096 2336.512 L 2382.096 2336.532 C 2377.53 2341.323 2372.984 2346.013 2368.379 2350.724 C 2367.457 2351.626 2366.596 2352.528 2365.695 2353.45 C 2363.433 2355.735 2361.15 2358.061 2358.827 2360.346 C 2356.544 2362.651 2354.241 2364.936 2351.919 2367.181 C 2346.992 2372.092 2341.986 2376.903 2336.98 2381.714 C 2336.82 2381.834 2336.659 2381.995 2336.5 2382.155 C 2331.494 2386.926 2326.447 2391.637 2321.381 2396.327 C 2320.96 2396.768 2320.48 2397.149 2320.039 2397.59 C 2309.747 2407.112 2299.294 2416.433 2288.721 2425.553 C 2283.435 2430.144 2278.148 2434.634 2272.822 2439.104 C 2272.28 2439.525 2271.76 2440.006 2271.22 2440.447 C 2267.374 2443.674 2263.51 2446.841 2259.606 2449.989 C 2257.403 2451.853 2255.159 2453.677 2252.897 2455.481 C 2248.251 2459.23 2243.566 2462.958 2238.86 2466.666 C 2233.693 2470.695 2228.527 2474.725 2223.32 2478.674 C 2222.379 2479.375 2221.418 2480.097 2220.517 2480.758 C 2215.231 2484.787 2209.904 2488.776 2204.538 2492.685 C 2198.79 2496.915 2193.024 2501.064 2187.217 2505.173 C 2186.896 2505.394 2186.596 2505.634 2186.275 2505.835 C 2181.51 2509.263 2176.644 2512.63 2171.798 2515.938 C 2160.003 2524.076 2148.088 2531.974 2136.054 2539.712 C 2133.61 2541.295 2131.168 2542.839 2128.725 2544.382 C 2125 2546.747 2121.255 2549.113 2117.471 2551.418 C 2115.688 2552.521 2113.886 2553.623 2112.104 2554.726 C 2108.52 2556.931 2104.935 2559.115 2101.331 2561.24 C 2099.249 2562.503 2097.166 2563.766 2095.063 2564.989 C 2090.458 2567.715 2085.832 2570.441 2081.187 2573.087 C 2076.921 2575.573 2072.656 2577.978 2068.351 2580.404 C 2067.971 2580.584 2067.61 2580.825 2067.209 2581.025 C 2062.523 2583.671 2057.817 2586.237 2053.092 2588.803 C 2048.666 2591.208 2044.261 2593.593 2039.795 2595.959 C 2039.475 2596.119 2039.215 2596.279 2038.894 2596.42 C 2034.229 2598.865 2029.583 2601.331 2024.897 2603.736 C 2022.274 2605.039 2019.671 2606.382 2017.068 2607.685 L 2017.028 2607.685 C 2014.785 2608.868 2012.503 2610.011 2010.219 2611.113 C 2005.674 2613.398 2001.128 2615.623 1996.563 2617.828 C 1968.668 2631.299 1940.273 2643.807 1911.358 2655.353 C 1908.675 2656.456 1905.952 2657.518 1903.228 2658.58 C 1888.951 2664.153 1874.553 2669.525 1860.075 2674.617 C 1855.25 2676.321 1850.404 2677.984 1845.598 2679.588 C 1839.67 2681.613 1833.723 2683.577 1827.796 2685.481 C 1823.371 2686.945 1818.925 2688.328 1814.46 2689.711 C 1809.253 2691.314 1804.047 2692.938 1798.8 2694.482 C 1793.053 2696.226 1787.286 2697.869 1781.479 2699.493 C 1776.753 2700.836 1771.967 2702.179 1767.242 2703.442 C 1766.18 2703.722 1765.159 2704.043 1764.098 2704.284 C 1761.014 2705.146 1757.89 2705.968 1754.787 2706.769 C 1754.706 2706.809 1754.666 2706.809 1754.586 2706.809 C 1752.443 2707.391 1750.281 2707.952 1748.158 2708.453 C 1744.393 2709.455 1740.609 2710.398 1736.824 2711.3 C 1735.563 2711.62 1734.301 2711.941 1733.04 2712.222 C 1728.474 2713.364 1723.889 2714.427 1719.283 2715.489 C 1717.621 2715.89 1715.959 2716.251 1714.296 2716.632 L 1714.256 2716.632 C 1711.534 2717.273 1708.81 2717.854 1706.107 2718.456 C 1703.964 2718.917 1701.841 2719.398 1699.659 2719.839 C 1694.693 2720.941 1689.686 2721.964 1684.68 2722.986 C 1680.014 2723.948 1675.329 2724.89 1670.623 2725.752 C 1668.26 2726.233 1665.817 2726.715 1663.414 2727.135 C 1661.231 2727.536 1659.069 2727.937 1656.906 2728.318 C 1654.924 2728.679 1652.962 2729.04 1650.979 2729.401 C 1648.976 2729.741 1646.954 2730.102 1644.952 2730.423 C 1643.25 2730.744 1641.588 2731.004 1639.905 2731.285 C 1638.284 2731.565 1636.661 2731.846 1635.04 2732.087 C 1629.913 2732.949 1624.747 2733.73 1619.58 2734.532 C 1615.275 2735.194 1610.99 2735.835 1606.645 2736.416 C 1601.959 2737.098 1597.253 2737.719 1592.527 2738.321 C 1591.646 2738.441 1590.786 2738.561 1589.924 2738.682 C 1588.062 2738.902 1586.22 2739.143 1584.317 2739.383 C 1583.256 2739.544 1582.195 2739.664 1581.113 2739.784 L 1581.074 2739.784 C 1578.01 2740.165 1574.966 2740.526 1571.882 2740.887 C 1571.702 2740.887 1571.502 2740.927 1571.301 2740.967 C 1567.076 2741.428 1562.851 2741.909 1558.626 2742.31 C 1557.804 2742.43 1556.984 2742.51 1556.143 2742.59 C 1553.58 2742.851 1551.016 2743.092 1548.453 2743.332 C 1541.004 2744.074 1533.475 2744.755 1525.926 2745.337 C 1523.803 2745.537 1521.66 2745.697 1519.538 2745.858 C 1515.553 2746.138 1511.568 2746.419 1507.583 2746.68 C 1505.14 2746.84 1502.697 2747 1500.254 2747.161 C 1495.469 2747.441 1490.703 2747.722 1485.937 2747.922 C 1480.69 2748.183 1475.444 2748.424 1470.157 2748.624 C 1464.59 2748.865 1458.983 2749.025 1453.417 2749.185 L 1453.076 2749.185 C 1447.349 2749.326 1441.622 2749.406 1435.915 2749.486 C 1430.229 2749.566 1424.541 2749.606 1418.834 2749.606 L 1418.714 2749.606 C 1416.491 2749.606 1414.289 2749.606 1412.086 2749.566 C 1393.623 2749.486 1375.281 2749.065 1357.018 2748.183 C 1354.515 2748.063 1352.033 2747.943 1349.509 2747.842 C 1344.503 2747.602 1339.457 2747.281 1334.451 2746.96 C 1328.444 2746.62 1322.496 2746.219 1316.529 2745.738 C 1311.402 2745.337 1306.277 2744.956 1301.15 2744.475 C 1298.267 2744.234 1295.423 2743.954 1292.579 2743.693 C 1265.727 2741.207 1239.134 2737.84 1212.822 2733.73 C 1209.658 2733.269 1206.554 2732.788 1203.43 2732.267 C 1199.886 2731.686 1196.361 2731.125 1192.898 2730.503 C 1191.235 2730.222 1189.594 2729.942 1187.931 2729.621 C 1183.145 2728.839 1178.46 2727.977 1173.734 2727.055 C 1170.129 2726.434 1166.545 2725.712 1163.001 2725.051 L 1162.961 2725.011 C 1162.44 2724.93 1161.979 2724.85 1161.459 2724.73 C 1160.978 2724.65 1160.477 2724.53 1159.997 2724.449 C 1156.372 2723.748 1152.708 2722.986 1149.103 2722.244 C 1147.461 2721.924 1145.799 2721.563 1144.138 2721.222 C 1139.672 2720.3 1135.267 2719.318 1130.841 2718.376 C 1129.7 2718.095 1128.519 2717.854 1127.377 2717.574 C 1123.793 2716.792 1120.188 2715.97 1116.604 2715.128 C 1115.303 2714.828 1113.96 2714.547 1112.699 2714.226 C 1112.619 2714.226 1112.579 2714.186 1112.499 2714.186 C 1106.191 2712.683 1099.884 2711.139 1093.595 2709.576 C 1086.927 2707.912 1080.319 2706.168 1073.731 2704.424 C 1070.167 2703.442 1066.623 2702.5 1063.118 2701.518 C 1061.296 2701.036 1059.474 2700.515 1057.712 2700.014 C 1052.425 2698.511 1047.178 2697.007 1041.932 2695.464 C 1038.368 2694.442 1034.904 2693.379 1031.44 2692.317 C 1029.337 2691.715 1027.295 2691.094 1025.272 2690.452 C 1023.229 2689.791 1021.167 2689.15 1019.124 2688.528 C 1008.591 2685.201 998.139 2681.773 987.766 2678.205 C 984.282 2677.022 980.817 2675.799 977.393 2674.617 C 973.909 2673.394 970.484 2672.171 967.04 2670.908 C 963.617 2669.686 960.192 2668.423 956.748 2667.16 C 949.859 2664.634 942.991 2662.028 936.202 2659.342 C 930.155 2656.997 924.128 2654.591 918.18 2652.186 C 914.035 2650.482 909.93 2648.798 905.865 2647.094 C 896.594 2643.226 887.363 2639.237 878.212 2635.167 C 870.762 2631.86 863.373 2628.452 856.004 2625.025 C 852.72 2623.481 849.456 2621.938 846.173 2620.354 C 839.624 2617.247 833.116 2614.08 826.649 2610.832 C 823.384 2609.229 820.141 2607.605 816.937 2605.941 C 813.192 2604.057 809.487 2602.153 805.823 2600.248 C 803.099 2598.845 800.376 2597.382 797.653 2595.959 C 794.469 2594.255 791.265 2592.551 788.101 2590.867 C 784.917 2589.123 781.753 2587.379 778.569 2585.655 C 775.125 2583.751 771.701 2581.847 768.297 2579.963 C 765.433 2578.339 762.55 2576.675 759.667 2575.072 C 752.358 2570.882 745.108 2566.652 737.92 2562.303 C 733.034 2559.416 728.147 2556.469 723.322 2553.503 C 721.6 2552.44 719.897 2551.418 718.195 2550.295 C 713.83 2547.609 709.485 2544.883 705.139 2542.157 C 699.733 2538.689 694.366 2535.221 689.06 2531.693 C 685.616 2529.488 682.231 2527.203 678.827 2524.918 C 675.243 2522.493 671.659 2520.087 668.094 2517.642 C 662.187 2513.572 656.259 2509.463 650.433 2505.314 C 644.545 2501.184 638.718 2496.955 632.911 2492.685 C 627.163 2488.456 621.397 2484.186 615.67 2479.856 C 615.59 2479.816 615.549 2479.736 615.469 2479.696 C 609.842 2475.386 604.195 2471.036 598.589 2466.666 C 592.942 2462.236 587.315 2457.746 581.748 2453.236 C 576.181 2448.726 570.654 2444.196 565.228 2439.605 C 565.068 2439.485 564.907 2439.324 564.787 2439.224 C 559.501 2434.834 554.294 2430.364 549.088 2425.874 C 548.608 2425.473 548.127 2425.072 547.707 2424.651 C 542.62 2420.261 537.574 2415.831 532.588 2411.341 C 527.301 2406.63 522.055 2401.9 516.888 2397.089 C 516.428 2396.688 515.947 2396.247 515.507 2395.826 C 510.901 2391.556 506.275 2387.247 501.75 2382.897 C 500.729 2381.955 499.688 2380.972 498.706 2379.97 C 494.401 2375.921 490.195 2371.812 485.971 2367.662 C 485.25 2366.941 484.589 2366.279 483.868 2365.558 C 479.463 2361.228 475.077 2356.838 470.732 2352.408 C 469.791 2351.466 468.89 2350.524 467.968 2349.582 C 464.264 2345.773 460.559 2341.984 456.935 2338.156 C 455.113 2336.311 453.35 2334.407 451.608 2332.503 C 447.904 2328.634 444.22 2324.725 440.595 2320.776 C 435.749 2315.524 430.923 2310.192 426.158 2304.86 C 421.431 2299.588 416.726 2294.216 412.08 2288.844 C 407.414 2283.472 402.809 2278.06 398.263 2272.607 C 397.842 2272.126 397.442 2271.625 397.041 2271.104 C 393.057 2266.373 389.112 2261.623 385.247 2256.812 C 384.106 2255.429 382.964 2254.005 381.863 2252.582 C 378.299 2248.192 374.795 2243.822 371.33 2239.352 C 370.69 2238.611 370.108 2237.809 369.508 2237.027 C 366.003 2232.517 362.48 2228.027 359.015 2223.436 C 357.674 2221.672 356.331 2219.888 354.99 2218.104 C 351.606 2213.614 348.202 2209.024 344.858 2204.453 C 340.993 2199.201 337.168 2193.909 333.424 2188.577 C 332.142 2186.833 330.921 2185.089 329.699 2183.325 C 326.395 2178.655 323.111 2173.964 319.927 2169.214 C 317.905 2166.347 315.942 2163.461 314.04 2160.574 C 314 2160.534 313.96 2160.454 313.96 2160.414 C 313.92 2160.414 313.92 2160.414 313.92 2160.414 C 312.338 2158.128 310.856 2155.863 309.394 2153.578 L 309.354 2153.578 C 308.954 2153.037 308.593 2152.436 308.253 2151.874 C 307.813 2151.253 307.412 2150.611 307.031 2149.99 C 306.39 2149.088 305.81 2148.126 305.209 2147.224 C 302.606 2143.315 300.043 2139.366 297.519 2135.417 L 296.098 2133.172 C 295.237 2131.869 294.396 2130.526 293.615 2129.223 C 293.535 2129.103 293.495 2129.023 293.414 2128.902 C 292.233 2127.078 291.051 2125.194 289.95 2123.37 L 289.91 2123.33 C 288.648 2121.325 287.407 2119.381 286.186 2117.376 C 286.186 2117.376 286.186 2117.376 286.145 2117.376 C 286.066 2117.256 286.005 2117.096 285.965 2116.975 L 285.926 2116.975 C 285.725 2116.695 285.565 2116.454 285.444 2116.194 C 285.365 2116.073 285.285 2115.913 285.204 2115.793 C 284.223 2114.249 283.282 2112.666 282.321 2111.082 C 281.981 2110.541 281.62 2109.94 281.3 2109.398 C 281.139 2109.158 281.019 2108.917 280.859 2108.677 C 280.038 2107.334 279.217 2105.991 278.416 2104.647 C 277.155 2102.603 275.933 2100.538 274.712 2098.453 C 274.672 2098.413 274.631 2098.333 274.591 2098.293 C 274.211 2097.632 273.771 2096.91 273.37 2096.208 C 272.929 2095.567 272.549 2094.905 272.188 2094.224 C 271.828 2093.603 271.448 2092.961 271.087 2092.3 C 270.406 2091.197 269.746 2090.075 269.105 2088.972 C 268.323 2087.669 267.563 2086.366 266.822 2085.063 C 266.462 2084.522 266.161 2083.961 265.841 2083.399 C 264.779 2081.555 263.698 2079.691 262.637 2077.807 C 262.597 2077.727 262.557 2077.686 262.516 2077.606 C 252.664 2060.387 243.193 2042.928 234.122 2025.228 C 232.7 2022.522 231.319 2019.796 229.937 2017.029 C 225.051 2007.347 220.265 1997.585 215.619 1987.763 C 212.855 1981.95 210.172 1976.157 207.49 1970.304 C 207.008 1969.281 206.548 1968.219 206.067 1967.177 L 206.067 1967.156 C 204.305 1963.248 202.563 1959.359 200.821 1955.45 C 169.423 1884.289 144.052 1809.941 125.348 1732.887 C 109.81 1668.802 98.896 1602.893 93.009 1535.52 C 89.545 1496.572 87.802 1457.163 87.802 1417.323 C 87.802 1347.188 93.209 1278.359 103.662 1211.147 C 103.862 1209.683 104.103 1208.22 104.363 1206.757 C 105.865 1196.975 107.567 1187.172 109.349 1177.45 C 222.167 556.145 765.514 85.039 1418.714 85.039 C 1492.284 85.039 1564.473 90.993 1634.819 102.519 C 1662.653 107.069 1690.207 112.482 1717.42 118.716 C 1740.569 124.048 1763.497 129.941 1786.145 136.496 C 1811.156 143.632 1835.845 151.49 1860.196 160.109 C 2378.231 342.402 2749.606 836.459 2749.606 1417.323" fill="rgb(153,206,240)"/><path d=" M 1634.819 102.519 C 1632.396 113.544 1629.713 124.569 1626.529 135.554 C 1625.067 141.186 1623.405 146.759 1621.643 152.332 L 1616.476 169.11 L 1610.669 185.727 C 1608.727 191.3 1606.764 196.872 1604.602 202.365 L 1598.195 218.902 C 1596.072 224.395 1593.669 229.847 1591.386 235.299 C 1586.881 246.264 1581.834 257.089 1576.828 267.873 C 1536.459 354.469 1482.853 436.154 1422.619 512.987 C 1392.242 551.294 1360.203 588.538 1326.521 624.399 C 1292.74 660.22 1257.557 694.839 1220.991 728.174 C 1184.387 761.469 1146.661 793.682 1107.893 824.692 C 1088.269 839.967 1068.705 855.302 1048.68 870.055 C 1028.836 885.069 1008.591 899.482 988.126 913.734 C 905.946 969.981 818.919 1019.974 727.547 1061.348 C 704.759 1071.791 681.671 1081.614 658.442 1091.095 C 635.154 1100.496 611.565 1109.136 587.856 1117.515 C 540.438 1134.092 492.198 1148.545 443.438 1160.953 C 492.239 1148.625 540.557 1134.573 588.096 1118.136 C 635.634 1101.759 682.512 1083.558 728.568 1063.533 C 820.541 1023.161 909.209 975.574 993.553 921.411 C 1014.659 907.861 1035.624 894.109 1056.089 879.697 C 1076.755 865.565 1096.96 850.832 1117.224 836.138 C 1157.594 806.571 1197.122 775.842 1235.59 743.85 C 1312.745 680.085 1385.874 611.37 1453.176 537.042 C 1486.958 499.958 1519.057 461.371 1549.394 421.26 C 1579.772 381.169 1608.107 339.395 1633.858 295.836 C 1659.429 252.157 1683.018 206.935 1702.102 159.267 L 1709.25 141.347 L 1715.798 123.146 L 1717.42 118.716 C 1690.207 112.482 1662.653 107.069 1634.819 102.519 L 1634.819 102.519 Z  M 1786.145 136.496 C 1772.368 178.591 1754.626 220.005 1733.981 260.296 C 1711.413 304.476 1685.301 347.333 1656.946 388.947 C 1628.371 430.421 1597.453 470.572 1564.593 509.399 C 1498.792 586.915 1425.463 658.958 1347.307 725.889 C 1269.031 792.62 1186.069 854.66 1099.283 911.048 C 925.189 1023.242 730.671 1106.57 527.221 1154.819 C 730.79 1106.851 925.83 1025.888 1104.169 918.445 C 1148.944 891.824 1192.417 863.24 1235.189 833.693 C 1278.002 804.166 1320.054 773.557 1361.023 741.564 C 1443.044 677.66 1521.44 608.944 1593.909 534.115 C 1666.418 459.366 1733.16 378.523 1789.729 289.823 C 1803.766 267.592 1817.143 244.901 1829.779 221.628 C 1840.532 201.523 1850.764 181.037 1860.196 160.109 C 1835.845 151.49 1811.156 143.632 1786.145 136.496" fill="rgb(149,193,211)"/><path d=" M 2574.892 2077.606 C 2571.307 2083.881 2567.663 2090.115 2563.998 2096.329 C 2552.444 2115.793 2540.45 2134.936 2527.954 2153.739 L 2527.954 2153.779 C 2524.51 2158.95 2521.046 2164.082 2517.522 2169.214 C 2513.476 2175.187 2509.331 2181.06 2505.186 2186.954 C 2496.856 2198.68 2488.386 2210.286 2479.695 2221.752 C 2471.024 2233.198 2462.154 2244.484 2453.102 2255.669 C 2448.617 2261.242 2444.032 2266.794 2439.426 2272.287 C 2430.234 2283.312 2420.843 2294.176 2411.292 2304.86 C 2407.747 2308.809 2404.202 2312.758 2400.558 2316.687 C 2399.336 2318.05 2398.075 2319.433 2396.814 2320.776 C 2391.968 2326.068 2387.041 2331.32 2382.096 2336.512 L 2382.096 2336.532 C 2377.53 2341.323 2372.984 2346.013 2368.379 2350.724 C 2367.457 2351.626 2366.596 2352.528 2365.695 2353.45 C 2363.433 2355.735 2361.15 2358.061 2358.827 2360.346 C 2356.544 2362.651 2354.241 2364.936 2351.919 2367.181 C 2346.992 2372.092 2341.986 2376.903 2336.98 2381.714 C 2336.82 2381.834 2336.659 2381.995 2336.5 2382.155 C 2331.494 2386.926 2326.447 2391.637 2321.381 2396.327 C 2320.96 2396.768 2320.48 2397.149 2320.039 2397.59 C 2309.747 2407.072 2299.294 2416.393 2288.721 2425.553 C 2283.435 2430.144 2278.148 2434.634 2272.822 2439.104 C 2272.28 2439.525 2271.76 2440.006 2271.22 2440.447 C 2267.374 2443.674 2263.51 2446.841 2259.606 2449.989 C 2257.403 2451.853 2255.159 2453.677 2252.897 2455.481 C 2248.251 2459.23 2243.566 2462.958 2238.86 2466.666 C 2233.693 2470.695 2228.527 2474.725 2223.32 2478.674 C 2222.379 2479.375 2221.418 2480.097 2220.517 2480.758 C 2215.231 2484.787 2209.904 2488.776 2204.538 2492.685 C 2198.79 2496.915 2193.024 2501.064 2187.217 2505.173 C 2186.896 2505.394 2186.596 2505.634 2186.275 2505.835 C 2181.51 2509.263 2176.644 2512.63 2171.798 2515.938 C 2160.003 2524.076 2148.088 2531.974 2136.054 2539.712 C 2133.61 2541.295 2131.168 2542.839 2128.725 2544.382 C 2125 2546.747 2121.255 2549.113 2117.471 2551.418 C 2115.688 2552.521 2113.886 2553.623 2112.104 2554.726 C 2108.52 2556.931 2104.935 2559.115 2101.331 2561.24 C 2099.249 2562.503 2097.166 2563.766 2095.063 2564.989 C 2090.458 2567.715 2085.832 2570.441 2081.187 2573.087 C 2076.921 2575.573 2072.656 2577.978 2068.351 2580.404 C 2067.971 2580.584 2067.61 2580.825 2067.209 2581.025 C 2062.523 2583.671 2057.817 2586.237 2053.092 2588.803 C 2048.666 2591.208 2044.261 2593.593 2039.795 2595.959 C 2039.475 2596.119 2039.215 2596.279 2038.894 2596.42 C 2034.229 2598.865 2029.583 2601.331 2024.897 2603.736 C 2022.274 2605.039 2019.671 2606.382 2017.068 2607.685 L 2017.028 2607.685 C 2014.785 2608.868 2012.503 2610.011 2010.219 2611.113 C 2005.674 2613.398 2001.128 2615.623 1996.563 2617.828 C 1968.668 2631.299 1940.273 2643.807 1911.358 2655.353 C 1908.675 2656.456 1905.952 2657.518 1903.228 2658.58 C 1888.951 2664.153 1874.553 2669.525 1860.075 2674.617 C 1855.25 2676.321 1850.404 2677.984 1845.598 2679.588 C 1839.67 2681.613 1833.723 2683.577 1827.796 2685.481 C 1823.371 2686.945 1818.925 2688.328 1814.46 2689.711 C 1809.253 2691.314 1804.047 2692.938 1798.8 2694.482 C 1793.053 2696.226 1787.286 2697.869 1781.479 2699.493 C 1776.753 2700.836 1771.967 2702.179 1767.242 2703.442 C 1766.18 2703.722 1765.159 2704.043 1764.098 2704.284 C 1761.014 2705.146 1757.89 2705.968 1754.787 2706.769 C 1754.706 2706.809 1754.666 2706.809 1754.586 2706.809 C 1752.443 2707.391 1750.281 2707.952 1748.158 2708.453 C 1744.393 2709.455 1740.609 2710.398 1736.824 2711.3 C 1735.563 2711.62 1734.301 2711.941 1733.04 2712.222 C 1728.474 2713.364 1723.889 2714.427 1719.283 2715.489 C 1717.621 2715.89 1715.959 2716.251 1714.296 2716.632 L 1714.256 2716.632 C 1711.534 2717.273 1708.81 2717.854 1706.107 2718.456 C 1703.964 2718.917 1701.841 2719.398 1699.659 2719.839 C 1694.693 2720.941 1689.686 2721.964 1684.68 2722.986 C 1680.014 2723.948 1675.329 2724.89 1670.623 2725.752 C 1668.26 2726.233 1665.817 2726.715 1663.414 2727.135 C 1661.231 2727.536 1659.069 2727.937 1656.906 2728.318 C 1654.924 2728.679 1652.962 2729.04 1650.979 2729.401 C 1649.016 2729.741 1646.994 2730.102 1644.992 2730.463 L 1639.905 2731.285 C 1638.284 2731.565 1636.661 2731.846 1635.04 2732.087 C 1629.913 2732.949 1624.747 2733.73 1619.58 2734.532 C 1615.275 2735.194 1610.99 2735.835 1606.645 2736.416 C 1601.959 2737.098 1597.253 2737.719 1592.527 2738.321 C 1591.646 2738.441 1590.786 2738.561 1589.924 2738.682 C 1588.062 2738.902 1586.22 2739.143 1584.317 2739.383 C 1583.256 2739.544 1582.195 2739.664 1581.113 2739.784 L 1581.074 2739.784 C 1578.01 2740.165 1574.966 2740.526 1571.882 2740.887 C 1571.702 2740.887 1571.502 2740.927 1571.301 2740.967 C 1567.076 2741.428 1562.851 2741.909 1558.626 2742.31 C 1557.804 2742.43 1556.984 2742.51 1556.143 2742.59 C 1553.58 2742.851 1551.016 2743.092 1548.453 2743.332 C 1541.004 2744.074 1533.475 2744.755 1525.926 2745.337 C 1523.803 2745.537 1521.66 2745.697 1519.538 2745.858 C 1515.553 2746.138 1511.568 2746.419 1507.583 2746.68 C 1505.14 2746.84 1502.697 2747 1500.254 2747.161 C 1495.469 2747.441 1490.703 2747.722 1485.937 2747.922 C 1480.69 2748.183 1475.444 2748.424 1470.157 2748.624 C 1464.59 2748.865 1458.983 2749.025 1453.417 2749.185 L 1453.076 2749.185 C 1447.349 2749.326 1441.622 2749.406 1435.915 2749.486 C 1430.229 2749.566 1424.541 2749.606 1418.834 2749.606 L 1418.714 2749.606 C 1416.491 2749.606 1414.289 2749.606 1412.086 2749.566 C 1393.623 2749.486 1375.281 2749.065 1357.018 2748.183 C 1354.515 2748.063 1352.033 2747.943 1349.509 2747.842 C 1344.503 2747.602 1339.457 2747.281 1334.451 2746.96 C 1328.444 2746.62 1322.496 2746.219 1316.529 2745.738 C 1311.402 2745.337 1306.277 2744.956 1301.15 2744.475 C 1298.267 2744.234 1295.423 2743.954 1292.579 2743.693 C 1265.727 2741.207 1239.134 2737.84 1212.822 2733.73 C 1209.658 2733.269 1206.554 2732.788 1203.43 2732.267 C 1199.886 2731.686 1196.361 2731.125 1192.898 2730.503 C 1191.235 2730.222 1189.594 2729.942 1187.931 2729.621 C 1183.145 2728.799 1178.42 2727.977 1173.734 2727.055 C 1170.129 2726.434 1166.545 2725.712 1163.001 2725.051 C 1162.48 2724.93 1161.979 2724.85 1161.459 2724.73 C 1160.978 2724.65 1160.477 2724.53 1159.997 2724.449 C 1156.372 2723.748 1152.708 2722.986 1149.103 2722.244 C 1147.461 2721.924 1145.799 2721.563 1144.138 2721.222 C 1139.672 2720.3 1135.267 2719.318 1130.841 2718.376 C 1129.7 2718.095 1128.519 2717.854 1127.377 2717.574 C 1123.793 2716.792 1120.188 2715.97 1116.604 2715.128 C 1115.303 2714.828 1113.96 2714.547 1112.699 2714.226 C 1112.619 2714.226 1112.579 2714.186 1112.499 2714.186 C 1106.191 2712.683 1099.884 2711.139 1093.595 2709.576 C 1086.927 2707.912 1080.319 2706.168 1073.731 2704.424 C 1070.167 2703.442 1066.623 2702.5 1063.118 2701.518 C 1061.296 2701.036 1059.474 2700.515 1057.712 2700.014 C 1052.425 2698.511 1047.178 2697.007 1041.932 2695.464 C 1038.368 2694.442 1034.904 2693.379 1031.44 2692.317 C 1029.337 2691.715 1027.295 2691.094 1025.272 2690.452 C 1023.229 2689.791 1021.167 2689.15 1019.124 2688.528 C 1008.591 2685.201 998.139 2681.773 987.766 2678.205 C 984.282 2677.022 980.817 2675.799 977.393 2674.617 C 973.909 2673.394 970.484 2672.171 967.04 2670.908 C 963.617 2669.686 960.192 2668.423 956.748 2667.16 C 949.859 2664.634 942.991 2662.028 936.202 2659.342 C 930.155 2656.997 924.128 2654.591 918.18 2652.186 C 914.035 2650.482 909.93 2648.798 905.865 2647.094 C 896.594 2643.226 887.363 2639.237 878.212 2635.167 C 870.762 2631.86 863.373 2628.452 856.004 2625.025 C 852.72 2623.481 849.456 2621.938 846.173 2620.354 C 839.624 2617.247 833.116 2614.08 826.649 2610.832 C 823.384 2609.229 820.141 2607.605 816.937 2605.941 C 813.192 2604.057 809.487 2602.153 805.823 2600.248 C 803.099 2598.845 800.376 2597.382 797.653 2595.959 C 794.469 2594.255 791.265 2592.551 788.101 2590.867 C 784.917 2589.123 781.753 2587.379 778.569 2585.655 C 775.125 2583.751 771.701 2581.847 768.297 2579.963 C 765.433 2578.339 762.55 2576.675 759.667 2575.072 C 752.358 2570.882 745.108 2566.652 737.92 2562.303 C 733.034 2559.416 728.147 2556.469 723.322 2553.503 C 721.6 2552.44 719.897 2551.418 718.195 2550.295 C 713.83 2547.609 709.485 2544.883 705.139 2542.157 C 699.733 2538.689 694.366 2535.221 689.06 2531.693 C 685.616 2529.488 682.231 2527.203 678.827 2524.918 C 675.243 2522.493 671.659 2520.087 668.094 2517.642 C 662.187 2513.572 656.259 2509.463 650.433 2505.314 C 644.545 2501.184 638.718 2496.955 632.911 2492.685 C 627.163 2488.456 621.397 2484.186 615.67 2479.856 C 615.59 2479.816 615.549 2479.736 615.469 2479.696 C 609.842 2475.386 604.195 2471.036 598.589 2466.666 C 592.942 2462.236 587.315 2457.746 581.748 2453.236 C 576.181 2448.726 570.654 2444.196 565.228 2439.605 C 565.068 2439.485 564.907 2439.324 564.787 2439.224 C 559.501 2434.834 554.294 2430.364 549.088 2425.874 C 548.608 2425.473 548.127 2425.072 547.707 2424.651 C 542.62 2420.261 537.574 2415.831 532.588 2411.341 C 527.301 2406.63 522.055 2401.9 516.888 2397.089 C 516.428 2396.688 515.947 2396.247 515.507 2395.826 C 510.901 2391.556 506.275 2387.247 501.75 2382.897 C 500.729 2381.955 499.688 2380.972 498.706 2379.97 C 494.401 2375.921 490.195 2371.812 485.971 2367.662 C 485.25 2366.941 484.589 2366.279 483.868 2365.558 C 479.463 2361.228 475.077 2356.838 470.732 2352.408 C 469.791 2351.466 468.89 2350.524 467.968 2349.582 C 464.264 2345.773 460.559 2341.984 456.935 2338.156 C 455.113 2336.311 453.35 2334.407 451.608 2332.503 C 447.904 2328.634 444.22 2324.725 440.595 2320.776 C 435.749 2315.524 430.923 2310.192 426.158 2304.86 C 421.431 2299.588 416.726 2294.216 412.08 2288.844 C 407.414 2283.472 402.809 2278.06 398.263 2272.607 C 397.842 2272.126 397.442 2271.625 397.041 2271.104 C 393.057 2266.373 389.112 2261.623 385.247 2256.812 C 384.106 2255.429 382.964 2254.005 381.863 2252.582 C 378.299 2248.192 374.795 2243.822 371.33 2239.352 C 370.69 2238.611 370.108 2237.809 369.508 2237.027 C 366.003 2232.517 362.48 2228.027 359.015 2223.436 C 357.674 2221.672 356.331 2219.888 354.99 2218.104 C 351.606 2213.614 348.202 2209.024 344.858 2204.453 C 340.993 2199.201 337.168 2193.909 333.424 2188.577 C 332.142 2186.833 330.921 2185.089 329.699 2183.325 C 326.395 2178.655 323.111 2173.964 319.927 2169.214 C 317.944 2166.347 315.982 2163.461 314.08 2160.574 C 314.04 2160.534 314 2160.454 313.96 2160.414 C 312.377 2158.128 310.896 2155.863 309.394 2153.578 C 308.994 2153.037 308.593 2152.476 308.253 2151.874 C 307.813 2151.253 307.412 2150.611 307.031 2149.99 C 306.39 2149.088 305.81 2148.126 305.209 2147.224 C 302.606 2143.315 300.043 2139.366 297.519 2135.417 L 296.098 2133.172 C 295.237 2131.869 294.396 2130.526 293.615 2129.223 C 293.535 2129.103 293.495 2129.023 293.414 2128.902 C 292.233 2127.078 291.051 2125.194 289.95 2123.37 L 289.91 2123.33 C 288.648 2121.325 287.407 2119.381 286.186 2117.376 C 286.066 2117.256 286.005 2117.096 285.965 2116.975 C 285.765 2116.695 285.605 2116.454 285.444 2116.194 C 285.365 2116.073 285.285 2115.913 285.204 2115.793 C 284.223 2114.249 283.282 2112.666 282.321 2111.082 C 281.981 2110.541 281.62 2109.94 281.3 2109.398 C 281.139 2109.158 281.019 2108.917 280.859 2108.677 C 280.038 2107.334 279.217 2105.991 278.416 2104.647 C 277.155 2102.603 275.933 2100.538 274.712 2098.453 C 274.672 2098.413 274.631 2098.333 274.591 2098.293 C 274.211 2097.632 273.771 2096.91 273.37 2096.208 C 273.33 2096.208 273.33 2096.208 273.33 2096.208 C 272.929 2095.567 272.589 2094.905 272.188 2094.224 C 271.828 2093.603 271.448 2092.961 271.087 2092.3 C 270.406 2091.197 269.746 2090.075 269.105 2088.972 C 268.323 2087.669 267.563 2086.366 266.822 2085.063 C 265.4 2082.658 264.018 2080.252 262.637 2077.807 C 262.597 2077.727 262.557 2077.686 262.516 2077.606 L 2574.892 2077.606" fill="rgb(199,192,152)"/><path d=" M 1412.086 2749.566 C 1393.623 2749.486 1375.281 2749.065 1357.018 2748.183 C 1354.515 2748.063 1352.033 2747.943 1349.509 2747.842 C 1344.503 2747.602 1339.457 2747.281 1334.451 2746.96 C 1328.444 2746.62 1322.496 2746.219 1316.529 2745.738 C 1311.402 2745.337 1306.277 2744.956 1301.15 2744.475 C 1298.267 2744.234 1295.423 2743.954 1292.579 2743.693 C 1265.727 2741.207 1239.134 2737.84 1212.822 2733.73 C 1209.658 2733.269 1206.554 2732.788 1203.43 2732.267 C 1199.886 2731.686 1196.361 2731.125 1192.898 2730.503 C 1191.235 2730.222 1189.594 2729.942 1187.931 2729.621 C 1183.145 2728.839 1178.46 2727.977 1173.734 2727.055 C 1170.129 2726.434 1166.545 2725.712 1163.001 2725.051 C 1162.48 2724.93 1161.979 2724.85 1161.459 2724.73 C 1160.978 2724.65 1160.477 2724.53 1159.997 2724.449 C 1156.372 2723.748 1152.708 2722.986 1149.103 2722.244 C 1147.461 2721.924 1145.799 2721.563 1144.138 2721.222 C 1139.672 2720.3 1135.267 2719.318 1130.841 2718.376 C 1129.7 2718.095 1128.519 2717.854 1127.377 2717.574 C 1123.793 2716.792 1120.188 2715.97 1116.604 2715.128 C 1115.303 2714.828 1113.96 2714.547 1112.699 2714.226 C 1112.619 2714.226 1112.579 2714.186 1112.499 2714.186 C 1106.191 2712.683 1099.884 2711.139 1093.595 2709.576 C 1086.927 2707.912 1080.319 2706.168 1073.731 2704.424 C 1070.167 2703.442 1066.623 2702.5 1063.118 2701.518 C 1061.296 2701.036 1059.474 2700.515 1057.712 2700.014 C 1052.425 2698.511 1047.178 2697.007 1041.932 2695.464 C 1038.368 2694.442 1034.904 2693.379 1031.44 2692.317 C 1029.337 2691.715 1027.295 2691.094 1025.272 2690.452 C 1023.229 2689.791 1021.167 2689.15 1019.124 2688.528 C 1008.591 2685.201 998.139 2681.773 987.766 2678.205 C 984.282 2677.022 980.817 2675.799 977.393 2674.617 C 973.909 2673.394 970.484 2672.171 967.04 2670.908 C 963.617 2669.686 960.192 2668.423 956.748 2667.16 C 949.859 2664.634 942.991 2662.028 936.202 2659.342 C 930.155 2656.997 924.128 2654.591 918.18 2652.186 C 914.035 2650.482 909.93 2648.798 905.865 2647.094 C 896.594 2643.226 887.363 2639.237 878.212 2635.167 C 870.762 2631.86 863.373 2628.452 856.004 2625.025 C 852.72 2623.481 849.456 2621.938 846.173 2620.354 C 839.624 2617.247 833.116 2614.08 826.649 2610.832 C 823.384 2609.229 820.141 2607.605 816.937 2605.941 C 813.192 2604.057 809.487 2602.153 805.823 2600.248 C 803.099 2598.845 800.376 2597.382 797.653 2595.959 C 794.469 2594.255 791.265 2592.551 788.101 2590.867 C 784.917 2589.123 781.753 2587.379 778.569 2585.655 C 775.125 2583.751 771.701 2581.847 768.297 2579.963 C 765.433 2578.339 762.55 2576.675 759.667 2575.072 C 752.358 2570.882 745.108 2566.652 737.92 2562.303 C 733.034 2559.416 728.147 2556.469 723.322 2553.503 C 721.6 2552.44 719.897 2551.418 718.195 2550.295 C 713.83 2547.609 709.485 2544.883 705.139 2542.157 C 699.733 2538.689 694.366 2535.221 689.06 2531.693 C 685.616 2529.488 682.231 2527.203 678.827 2524.918 C 675.243 2522.493 671.659 2520.087 668.094 2517.642 C 662.187 2513.572 656.259 2509.463 650.433 2505.314 C 644.545 2501.184 638.718 2496.955 632.911 2492.685 C 627.163 2488.456 621.397 2484.186 615.67 2479.856 C 615.59 2479.816 615.549 2479.736 615.469 2479.696 C 609.842 2475.386 604.195 2471.036 598.589 2466.666 C 592.942 2462.236 587.315 2457.746 581.748 2453.236 C 576.181 2448.726 570.654 2444.196 565.228 2439.605 C 565.068 2439.485 564.907 2439.324 564.787 2439.224 C 559.501 2434.834 554.294 2430.364 549.088 2425.874 C 548.608 2425.473 548.127 2425.072 547.707 2424.651 C 542.62 2420.261 537.574 2415.831 532.588 2411.341 C 527.301 2406.63 522.055 2401.9 516.888 2397.089 C 516.428 2396.688 515.947 2396.247 515.507 2395.826 C 510.901 2391.556 506.275 2387.247 501.75 2382.897 C 500.729 2381.955 499.688 2380.972 498.706 2379.97 C 494.401 2375.921 490.195 2371.812 485.971 2367.662 C 485.25 2366.941 484.589 2366.279 483.868 2365.558 C 479.463 2361.228 475.077 2356.838 470.732 2352.408 C 469.791 2351.466 468.89 2350.524 467.968 2349.582 C 464.264 2345.773 460.559 2341.984 456.935 2338.156 C 455.113 2336.311 453.35 2334.407 451.608 2332.503 C 447.904 2328.634 444.22 2324.725 440.595 2320.776 C 435.749 2315.524 430.923 2310.192 426.158 2304.86 C 421.431 2299.588 416.726 2294.216 412.08 2288.844 C 407.414 2283.472 402.809 2278.06 398.263 2272.607 C 397.842 2272.126 397.442 2271.625 397.041 2271.104 C 393.057 2266.373 389.112 2261.623 385.247 2256.812 C 384.106 2255.429 382.964 2254.005 381.863 2252.582 C 378.299 2248.192 374.795 2243.822 371.33 2239.352 C 370.69 2238.611 370.108 2237.809 369.508 2237.027 C 366.003 2232.517 362.48 2228.027 359.015 2223.436 C 357.674 2221.672 356.331 2219.888 354.99 2218.104 C 351.606 2213.614 348.202 2209.024 344.858 2204.453 C 340.993 2199.201 337.168 2193.909 333.424 2188.577 C 332.142 2186.833 330.921 2185.089 329.699 2183.325 C 326.395 2178.655 323.111 2173.964 319.927 2169.214 C 317.905 2166.347 315.942 2163.461 314.04 2160.574 C 314 2160.534 313.96 2160.454 313.96 2160.414 C 313.92 2160.414 313.92 2160.414 313.92 2160.414 C 312.338 2158.128 310.856 2155.863 309.394 2153.578 L 309.354 2153.578 C 308.954 2153.037 308.593 2152.436 308.253 2151.874 C 307.813 2151.253 307.412 2150.611 307.031 2149.99 C 306.39 2149.088 305.81 2148.126 305.209 2147.224 C 302.606 2143.315 300.043 2139.366 297.519 2135.417 L 296.098 2133.172 C 295.237 2131.869 294.396 2130.526 293.615 2129.223 C 293.535 2129.103 293.495 2129.023 293.414 2128.902 C 292.233 2127.078 291.051 2125.194 289.95 2123.37 C 302.565 2125.034 315.381 2126.838 328.277 2128.822 C 337.008 2130.125 345.759 2131.508 354.589 2133.012 C 364.742 2134.635 374.914 2136.359 385.127 2138.183 C 606.118 2177.312 852.139 2253.304 1023.47 2361.027 C 1215.345 2481.66 1343.362 2624.624 1412.086 2749.566" fill="rgb(33,52,33)"/><path d=" M 1283.749 1586.075 L 1283.749 2025.228 L 234.122 2025.228 C 232.7 2022.522 231.319 2019.796 229.937 2017.029 C 225.051 2007.347 220.265 1997.585 215.619 1987.763 C 212.855 1981.95 210.172 1976.157 207.49 1970.304 C 207.008 1969.281 206.548 1968.219 206.067 1967.177 L 206.067 1967.156 C 204.305 1963.248 202.563 1959.359 200.821 1955.45 C 169.423 1884.289 144.052 1809.941 125.348 1732.887 C 109.81 1668.802 98.896 1602.893 93.009 1535.52 C 89.545 1496.572 87.802 1457.163 87.802 1417.323 C 87.802 1347.188 93.209 1278.359 103.662 1211.147 C 103.862 1209.683 104.103 1208.22 104.363 1206.757 C 105.865 1196.975 107.567 1187.172 109.349 1177.45 C 128.072 1169.953 141.128 1162.416 141.448 1154.899 L 213.136 1117.795 C 246.077 1100.737 284.263 1104.646 314.16 1128.099 L 501.79 1244.863 C 556.457 1278.86 620.375 1286.958 680.049 1267.414 L 779.831 1234.72 C 811.81 1215.717 849.957 1217.14 880.855 1238.468 L 947.316 1284.392 L 953.284 1288.501 L 1232.586 1481.498 C 1264.305 1503.408 1283.749 1543.177 1283.749 1586.075" fill="rgb(253,251,236)"/><path d=" M 1353.134 2644.088 C 1324.699 2610.171 1295.624 2576.755 1265.446 2544.342 C 1205.013 2479.415 1140.033 2418.517 1068.045 2366.56 C 993.012 2312.377 911.512 2273.349 824.606 2242.199 C 777.689 2225.381 730.751 2208.623 683.453 2192.687 C 683.373 2192.687 683.253 2192.646 683.173 2192.606 C 649.832 2181.421 616.431 2170.637 582.769 2160.534 C 568.572 2156.224 554.374 2152.075 540.097 2148.086 C 525.739 2144.057 511.282 2140.188 496.804 2136.56 C 496.784 2136.52 496.724 2136.52 496.703 2136.52 C 489.955 2134.816 483.207 2133.132 476.419 2131.508 L 476.299 2131.508 C 454.212 2126.176 432.005 2121.285 409.717 2116.975 C 407.694 2116.574 405.692 2116.194 403.67 2115.833 C 395.32 2114.209 386.909 2112.706 378.458 2111.282 C 378.078 2111.202 377.678 2111.162 377.277 2111.082 C 366.043 2109.198 354.79 2107.454 343.556 2105.87 C 343.516 2105.83 343.516 2105.83 343.476 2105.87 C 333.144 2104.407 322.85 2103.104 312.498 2101.921 C 305.529 2101.14 298.541 2100.418 291.512 2099.756 C 285.886 2099.195 280.238 2098.734 274.591 2098.293 C 274.631 2098.333 274.672 2098.413 274.712 2098.453 C 275.933 2100.538 277.155 2102.603 278.416 2104.647 C 279.217 2105.991 280.038 2107.334 280.859 2108.677 C 281.019 2108.917 281.139 2109.158 281.3 2109.398 C 281.62 2109.94 281.981 2110.541 282.321 2111.082 C 283.282 2112.666 284.223 2114.249 285.204 2115.793 C 285.285 2115.913 285.365 2116.073 285.444 2116.194 C 285.565 2116.454 285.725 2116.695 285.926 2116.975 L 285.965 2116.975 C 286.005 2117.096 286.066 2117.256 286.145 2117.376 C 286.186 2117.376 286.186 2117.376 286.186 2117.376 C 287.407 2119.381 288.648 2121.325 289.91 2123.33 L 289.95 2123.37 C 291.051 2125.194 292.233 2127.078 293.414 2128.902 C 293.495 2129.023 293.535 2129.103 293.615 2129.223 C 294.396 2130.526 295.237 2131.869 296.098 2133.172 L 297.519 2135.417 C 300.043 2139.366 302.606 2143.315 305.209 2147.224 C 305.81 2148.126 306.39 2149.088 307.031 2149.99 C 307.412 2150.611 307.813 2151.253 308.253 2151.874 C 308.593 2152.436 308.954 2153.037 309.354 2153.578 L 309.394 2153.578 C 310.856 2155.863 312.338 2158.128 313.92 2160.414 C 313.92 2160.414 313.92 2160.414 313.96 2160.414 C 313.96 2160.454 314 2160.534 314.04 2160.574 L 314.08 2160.574 C 317.744 2161.015 321.389 2161.476 325.053 2161.957 C 341.233 2164.042 357.313 2166.487 373.373 2169.214 C 374.474 2169.935 375.696 2170.557 377.037 2171.038 C 378.038 2171.479 379.059 2171.779 380.161 2172.02 C 383.785 2172.822 387.45 2173.483 391.094 2174.004 C 409.156 2176.65 427.178 2176.45 445.06 2176.951 C 464.825 2177.472 484.348 2178.895 503.552 2186.012 C 530.586 2195.994 556.697 2208.282 582.389 2221.432 C 582.449 2221.472 582.489 2221.512 582.569 2221.552 C 594.283 2227.465 605.898 2233.619 617.452 2239.833 C 671.378 2268.699 726.886 2296.301 780.292 2326.87 C 780.451 2326.99 780.652 2327.071 780.812 2327.191 C 801.758 2339.178 822.383 2351.706 842.427 2364.896 C 911.633 2410.459 972.647 2470.896 1031.74 2528.707 C 1061.496 2557.812 1090.412 2588.221 1115.543 2621.456 C 1137.309 2650.302 1154.991 2682.234 1178.94 2709.415 C 1186.59 2718.095 1194.8 2725.672 1203.43 2732.267 C 1206.554 2732.788 1209.658 2733.269 1212.822 2733.73 C 1239.134 2737.84 1265.727 2741.207 1292.579 2743.693 C 1295.423 2743.954 1298.267 2744.234 1301.15 2744.475 C 1306.277 2744.956 1311.402 2745.337 1316.529 2745.738 C 1322.496 2746.219 1328.444 2746.62 1334.451 2746.96 C 1339.457 2747.281 1344.503 2747.602 1349.509 2747.842 C 1352.033 2747.943 1354.515 2748.063 1357.018 2748.183 C 1375.281 2749.065 1393.623 2749.486 1412.086 2749.566 C 1414.289 2749.606 1416.491 2749.606 1418.714 2749.606 L 1418.834 2749.606 C 1414.649 2728.759 1404.842 2710.277 1392.773 2693.058 C 1380.703 2675.839 1366.37 2659.883 1353.134 2644.088" fill="rgb(160,93,48)"/><path d=" M 2744.92 1529.667 C 2728.42 1727.835 2668.587 1913.635 2574.892 2077.606 C 2571.307 2083.881 2567.663 2090.115 2563.998 2096.329 C 2552.524 2115.793 2540.49 2134.936 2527.954 2153.739 L 2527.954 2153.779 C 2524.55 2158.95 2521.085 2164.082 2517.522 2169.214 C 2513.476 2175.187 2509.331 2181.06 2505.186 2186.954 C 2496.936 2198.68 2488.426 2210.286 2479.695 2221.752 C 2471.065 2233.198 2462.213 2244.524 2453.102 2255.669 C 2448.617 2261.242 2444.032 2266.794 2439.426 2272.287 C 2430.274 2283.312 2420.883 2294.176 2411.292 2304.86 C 2407.787 2308.809 2404.242 2312.758 2400.598 2316.687 L 2400.558 2316.687 L 1400.411 2316.727 L 1144.138 2316.727 L 1160.978 2283.231 L 1214.083 2177.753 L 1264.505 2077.606 L 1276.059 2054.614 L 1318.932 1969.402 C 1318.932 1926.464 1343.602 1886.755 1383.751 1864.785 L 1829.258 1621.755 C 1868.345 1600.447 1916.685 1599.024 1957.194 1618.047 L 2083.59 1650.721 C 2159.222 1670.265 2240.121 1662.167 2309.406 1628.17 L 2547.038 1511.386 C 2584.904 1487.933 2633.283 1484.064 2675.015 1501.122 L 2744.92 1529.667" fill="rgb(183,80,44)"/><path d=" M 1764.098 2704.284 C 1761.014 2705.146 1757.89 2705.968 1754.787 2706.769 C 1754.706 2706.809 1754.666 2706.809 1754.586 2706.809 C 1752.443 2707.391 1750.281 2707.952 1748.158 2708.453 C 1744.393 2709.455 1740.609 2710.398 1736.824 2711.3 C 1735.563 2711.62 1734.301 2711.941 1733.04 2712.222 C 1728.474 2713.364 1723.889 2714.427 1719.283 2715.489 C 1717.621 2715.89 1715.959 2716.251 1714.296 2716.632 L 1714.256 2716.632 C 1711.534 2717.273 1708.81 2717.854 1706.107 2718.456 C 1703.964 2718.917 1701.841 2719.398 1699.659 2719.839 C 1694.693 2720.941 1689.686 2721.964 1684.68 2722.986 C 1680.014 2723.948 1675.329 2724.89 1670.623 2725.752 C 1668.26 2726.233 1665.817 2726.715 1663.414 2727.135 C 1598.835 2649.46 1527.227 2577.357 1449.592 2512.109 C 1360.944 2436.959 1263.864 2371.812 1161.059 2316.727 C 1156.653 2314.302 1152.188 2311.936 1147.682 2309.651 C 1124.894 2297.604 1101.806 2286.118 1078.457 2275.133 C 1069.065 2270.663 1059.634 2266.333 1050.163 2262.064 C 905.746 2197.778 751.697 2153.939 594.023 2131.989 C 566.049 2128.081 537.995 2124.833 509.84 2122.307 C 474.557 2119.06 439.133 2116.935 403.67 2115.833 C 364.301 2114.65 324.853 2114.73 285.444 2116.194 C 285.365 2116.073 285.285 2115.913 285.204 2115.793 C 284.223 2114.249 283.282 2112.666 282.321 2111.082 C 281.981 2110.541 281.62 2109.94 281.3 2109.398 C 281.139 2109.158 281.019 2108.917 280.859 2108.677 C 280.038 2107.334 279.217 2105.991 278.416 2104.647 C 289.79 2103.625 301.144 2102.723 312.498 2101.921 C 320.347 2101.38 328.238 2100.859 336.127 2100.418 L 336.327 2100.418 C 407.775 2096.329 479.582 2096.589 551.211 2101.22 L 551.37 2101.22 C 559.06 2101.661 566.71 2102.202 574.419 2102.803 C 581.989 2103.385 589.598 2104.026 597.167 2104.688 C 617.211 2106.472 637.216 2108.596 657.181 2111.082 C 797.813 2128.582 936.784 2163.22 1069.826 2214.797 C 1089.35 2222.454 1108.754 2230.472 1128.038 2238.811 C 1143.156 2245.326 1158.215 2252.081 1173.173 2259.017 C 1211.68 2276.877 1249.627 2296.101 1286.872 2316.727 C 1359.762 2357.038 1429.988 2402.641 1496.389 2453.557 C 1593.669 2527.444 1683.459 2611.634 1764.098 2704.284" fill="rgb(160,93,48)"/><path d=" M 1127.758 1768.387 C 1125.635 1812.928 1103.748 1871.3 1069.306 1920.27 C 1067.564 1922.836 1065.721 1925.362 1063.859 1927.848 C 1057.511 1936.387 1050.763 1944.605 1043.615 1952.343 C 1043.354 1952.724 1042.994 1953.085 1042.633 1953.445 C 1029.617 1967.537 1015.42 1980.066 1000.301 1990.128 C 986.664 1999.329 972.227 2006.526 957.228 2011.136 C 946.215 2014.544 934.941 2016.548 923.427 2016.949 C 922.085 2016.989 920.704 2017.029 919.362 2017.029 L 229.937 2017.029 C 225.051 2007.347 220.265 1997.585 215.619 1987.763 C 212.855 1981.95 210.172 1976.157 207.49 1970.304 C 207.008 1969.281 206.548 1968.219 206.067 1967.177 L 206.067 1967.156 C 204.305 1963.248 202.563 1959.359 200.821 1955.45 C 169.423 1884.289 144.052 1809.941 125.348 1732.887 C 109.81 1668.802 98.896 1602.893 93.009 1535.52 L 405.812 1439.563 C 455.634 1424.269 510.501 1425.451 559.34 1442.911 L 904.764 1566.29 L 923.467 1572.965 L 1001.142 1600.688 C 1080.82 1629.152 1131.242 1695.883 1127.758 1768.387" fill="rgb(107,127,112)"/><path d=" M 1042.673 1956.172 C 1042.513 1959.76 1042.193 1963.468 1041.692 1967.297 C 1039.329 1985.237 1033.282 2005.563 1024.371 2025.228 C 1015.7 2044.311 1004.286 2062.713 990.99 2077.606 C 973.128 2097.592 951.742 2111.082 928.854 2111.082 L 282.321 2111.082 C 281.981 2110.541 281.62 2109.94 281.3 2109.398 C 281.139 2109.158 281.019 2108.917 280.859 2108.677 C 280.038 2107.334 279.217 2105.991 278.416 2104.647 C 277.155 2102.603 275.933 2100.538 274.712 2098.453 C 274.672 2098.413 274.631 2098.333 274.591 2098.293 C 274.211 2097.632 273.771 2096.91 273.37 2096.208 C 273.33 2096.208 273.33 2096.208 273.33 2096.208 C 272.929 2095.567 272.589 2094.905 272.188 2094.224 C 271.828 2093.603 271.448 2092.961 271.087 2092.3 C 270.406 2091.197 269.746 2090.075 269.105 2088.972 C 268.323 2087.669 267.563 2086.366 266.822 2085.063 C 266.462 2084.522 266.161 2083.961 265.841 2083.399 C 264.779 2081.555 263.698 2079.691 262.637 2077.807 C 262.597 2077.727 262.557 2077.686 262.516 2077.606 C 252.664 2060.387 243.193 2042.928 234.122 2025.228 C 232.7 2022.522 231.319 2019.796 229.937 2017.029 C 225.051 2007.347 220.265 1997.585 215.619 1987.763 C 212.855 1981.95 210.172 1976.157 207.49 1970.304 C 207.008 1969.281 206.548 1968.219 206.067 1967.177 L 206.067 1967.156 C 204.305 1963.248 202.563 1959.359 200.821 1955.45 C 169.423 1884.289 144.052 1809.941 125.348 1732.887 L 218.062 1700.433 C 249.1 1689.569 283.322 1690.431 313.72 1702.839 L 494.521 1776.525 C 518.831 1786.448 546.164 1787.109 570.975 1778.43 L 648.53 1751.248 C 675.723 1741.747 705.7 1742.488 732.333 1753.353 L 770.239 1768.788 L 787.12 1775.663 L 969.223 1849.911 C 991.47 1858.992 1009.853 1873.986 1022.629 1892.508 C 1031.159 1904.795 1037.226 1918.687 1040.311 1933.42 C 1041.652 1939.815 1042.433 1946.37 1042.633 1953.004 L 1042.633 1953.445 C 1042.673 1954.348 1042.673 1955.27 1042.673 1956.172" fill="rgb(37,68,47)"/><path d=" M 1276.059 1826.438 L 1276.059 2137.402 L 1214.083 2177.753 L 1190.134 2193.348 L 1128.038 2238.811 L 1104.048 2256.371 L 1101.845 2257.994 L 1078.457 2275.133 L 1070.688 2280.826 C 943.692 2219.066 806.023 2174.746 658.322 2146.903 C 658.282 2146.863 658.242 2146.863 658.201 2146.863 C 583.37 2132.731 505.975 2122.829 426.077 2116.975 L 285.926 2116.975 C 285.725 2116.695 285.565 2116.454 285.444 2116.194 C 285.365 2116.073 285.285 2115.913 285.204 2115.793 C 284.223 2114.249 283.282 2112.666 282.321 2111.082 C 281.981 2110.541 281.62 2109.94 281.3 2109.398 C 281.139 2109.158 281.019 2108.917 280.859 2108.677 C 280.038 2107.334 279.217 2105.991 278.416 2104.647 C 277.155 2102.603 275.933 2100.538 274.712 2098.453 C 274.672 2098.413 274.631 2098.333 274.591 2098.293 C 274.211 2097.632 273.771 2096.91 273.37 2096.208 C 273.33 2096.208 273.33 2096.208 273.33 2096.208 C 272.929 2095.567 272.589 2094.905 272.188 2094.224 C 271.828 2093.603 271.448 2092.961 271.087 2092.3 C 270.406 2091.197 269.746 2090.075 269.105 2088.972 C 268.323 2087.669 267.563 2086.366 266.822 2085.063 C 266.462 2084.522 266.161 2083.961 265.841 2083.399 C 264.779 2081.555 263.698 2079.691 262.637 2077.807 C 262.597 2077.727 262.557 2077.686 262.516 2077.606 C 252.664 2060.387 243.193 2042.928 234.122 2025.228 C 232.7 2022.522 231.319 2019.796 229.937 2017.029 C 225.051 2007.347 220.265 1997.585 215.619 1987.763 L 920.623 1987.763 L 1040.311 1933.42 L 1069.306 1920.27 L 1121.11 1896.777 L 1172.853 1873.284 L 1276.059 1826.438" fill="rgb(23,26,15)"/><path d=" M 1635.04 2732.087 C 1629.913 2732.949 1624.747 2733.73 1619.58 2734.532 C 1615.275 2735.194 1610.99 2735.835 1606.645 2736.416 C 1601.959 2737.098 1597.253 2737.719 1592.527 2738.321 C 1591.646 2738.441 1590.786 2738.561 1589.924 2738.682 C 1588.062 2738.902 1586.22 2739.143 1584.317 2739.383 C 1583.256 2739.544 1582.195 2739.664 1581.113 2739.784 L 1581.074 2739.784 C 1578.01 2740.165 1574.966 2740.526 1571.882 2740.887 C 1571.702 2740.887 1571.502 2740.927 1571.301 2740.967 C 1567.076 2741.428 1562.851 2741.909 1558.626 2742.31 C 1557.804 2742.43 1556.984 2742.51 1556.143 2742.59 C 1553.58 2742.851 1551.016 2743.092 1548.453 2743.332 C 1541.004 2744.074 1533.475 2744.755 1525.926 2745.337 C 1459.965 2665.215 1386.595 2590.907 1306.797 2523.876 C 1186.91 2422.206 1051.464 2338.837 907.367 2273.83 C 834.899 2241.557 760.026 2214.476 683.453 2192.687 C 683.373 2192.687 683.253 2192.646 683.173 2192.606 C 607.28 2170.998 529.724 2154.681 451.208 2143.756 C 446.903 2143.155 442.658 2142.573 438.352 2142.012 C 410.538 2138.344 382.604 2135.337 354.589 2133.012 C 334.245 2131.268 313.839 2129.885 293.414 2128.902 C 292.233 2127.078 291.051 2125.194 289.95 2123.37 L 289.91 2123.33 C 288.648 2121.325 287.407 2119.381 286.186 2117.376 C 286.186 2117.376 286.186 2117.376 286.145 2117.376 C 286.066 2117.256 286.005 2117.096 285.965 2116.975 L 285.926 2116.975 C 285.725 2116.695 285.565 2116.454 285.444 2116.194 C 285.365 2116.073 285.285 2115.913 285.204 2115.793 C 284.223 2114.249 283.282 2112.666 282.321 2111.082 C 281.981 2110.541 281.62 2109.94 281.3 2109.398 C 312.338 2109.118 343.396 2109.699 374.434 2111.082 C 375.776 2111.162 377.117 2111.202 378.458 2111.282 C 403.79 2112.465 429.081 2114.209 454.372 2116.454 C 472.874 2118.118 491.377 2120.062 509.84 2122.307 C 559.541 2128.341 609.082 2136.52 658.201 2146.863 C 658.242 2146.863 658.282 2146.863 658.322 2146.903 C 749.654 2166.147 839.624 2192.687 927.012 2226.563 C 1078.577 2286.038 1223.315 2365.498 1353.574 2465.363 C 1456.501 2543.48 1550.937 2633.083 1635.04 2732.087 Z " fill="rgb(160,93,48)"/><path d=" M 2527.954 2153.739 L 2527.954 2153.779 C 2524.55 2158.95 2521.085 2164.082 2517.522 2169.214 C 2513.476 2175.187 2509.331 2181.06 2505.186 2186.954 C 2496.936 2198.68 2488.426 2210.286 2479.695 2221.752 C 2471.065 2233.198 2462.213 2244.524 2453.102 2255.669 C 2448.617 2261.242 2444.032 2266.794 2439.426 2272.287 C 2430.274 2283.312 2420.883 2294.176 2411.292 2304.86 C 2407.787 2308.809 2404.242 2312.758 2400.598 2316.687 C 2399.377 2318.05 2398.155 2319.393 2396.814 2320.776 C 2391.968 2326.068 2387.041 2331.32 2382.096 2336.512 L 2382.096 2336.532 C 2377.53 2341.323 2372.984 2346.013 2368.379 2350.724 C 2367.457 2351.626 2366.596 2352.528 2365.695 2353.45 C 2361.15 2358.061 2356.584 2362.651 2351.919 2367.181 C 2346.992 2372.092 2341.986 2376.903 2336.98 2381.714 C 2336.82 2381.834 2336.659 2381.995 2336.5 2382.155 C 2331.494 2386.926 2326.447 2391.637 2321.381 2396.327 C 2320.96 2396.768 2320.48 2397.149 2320.039 2397.59 C 2309.747 2407.112 2299.294 2416.433 2288.721 2425.553 C 2283.435 2430.144 2278.148 2434.634 2272.822 2439.104 C 2272.28 2439.525 2271.76 2440.006 2271.22 2440.447 C 2267.374 2443.674 2263.51 2446.841 2259.606 2449.989 C 2257.403 2451.853 2255.159 2453.677 2252.897 2455.481 C 2248.251 2459.23 2243.566 2462.958 2238.86 2466.666 C 2233.693 2470.695 2228.527 2474.725 2223.32 2478.674 C 2222.379 2479.375 2221.418 2480.097 2220.517 2480.758 C 2215.231 2484.787 2209.904 2488.776 2204.538 2492.685 C 2198.79 2496.915 2193.024 2501.064 2187.217 2505.173 C 2186.896 2505.394 2186.596 2505.634 2186.275 2505.835 C 2181.51 2509.263 2176.644 2512.63 2171.798 2515.938 C 2160.003 2524.076 2148.088 2531.974 2136.054 2539.712 C 2133.61 2541.295 2131.168 2542.839 2128.725 2544.382 C 2125 2546.747 2121.255 2549.113 2117.471 2551.418 C 2115.688 2552.521 2113.886 2553.623 2112.104 2554.726 C 2108.52 2556.931 2104.935 2559.115 2101.331 2561.24 C 2099.249 2562.503 2097.166 2563.766 2095.063 2564.989 C 2090.458 2567.715 2085.832 2570.441 2081.187 2573.087 C 2076.921 2575.573 2072.656 2577.978 2068.351 2580.404 C 2067.971 2580.584 2067.61 2580.825 2067.209 2581.025 C 2062.523 2583.671 2057.817 2586.237 2053.092 2588.803 C 2048.666 2591.208 2044.261 2593.593 2039.795 2595.959 C 2039.475 2596.119 2039.215 2596.279 2038.894 2596.42 C 2034.229 2598.865 2029.583 2601.331 2024.897 2603.736 C 2022.274 2605.039 2019.671 2606.382 2017.068 2607.685 L 2017.028 2607.685 L 1742.631 2413.586 L 1420.797 2393.922 L 1400.411 2316.727 L 1373.338 2214.155 L 2511.654 2116.975 L 2527.954 2153.739" fill="rgb(0,0,0)"/><path d=" M 1699.659 2719.839 C 1694.693 2720.941 1689.686 2721.964 1684.68 2722.986 C 1680.014 2723.948 1675.329 2724.89 1670.623 2725.752 C 1668.26 2726.233 1665.817 2726.715 1663.414 2727.135 C 1661.231 2727.536 1659.069 2727.937 1656.906 2728.318 C 1654.924 2728.679 1652.962 2729.04 1650.979 2729.401 C 1649.016 2729.741 1646.994 2730.102 1644.992 2730.463 L 1639.905 2731.285 C 1638.284 2731.565 1636.661 2731.846 1635.04 2732.087 C 1629.913 2732.949 1624.747 2733.73 1619.58 2734.532 C 1615.275 2735.194 1610.99 2735.835 1606.645 2736.416 C 1601.959 2737.098 1597.253 2737.719 1592.527 2738.321 C 1571.541 2713.458 1549.833 2689.176 1527.435 2665.52 C 1483.903 2619.543 1437.762 2575.932 1389.238 2535.021 C 1269.431 2433.01 1134.045 2349.301 989.929 2283.973 C 860.57 2226.042 723.402 2184.588 582.769 2160.534 C 566.369 2157.728 549.869 2155.162 533.389 2152.837 C 501.83 2148.366 470.151 2144.738 438.352 2142.012 C 420.631 2140.428 402.888 2139.166 385.127 2138.183 C 355.972 2136.52 326.755 2135.577 297.519 2135.417 L 296.098 2133.172 C 295.237 2131.869 294.396 2130.526 293.615 2129.223 C 293.535 2129.103 293.495 2129.023 293.414 2128.902 C 292.233 2127.078 291.051 2125.194 289.95 2123.37 L 289.91 2123.33 C 288.648 2121.325 287.407 2119.381 286.186 2117.376 C 286.186 2117.376 286.186 2117.376 286.145 2117.376 C 286.066 2117.256 286.005 2117.096 285.965 2116.975 L 285.926 2116.975 C 285.725 2116.695 285.565 2116.454 285.444 2116.194 C 285.365 2116.073 285.285 2115.913 285.204 2115.793 C 284.223 2114.249 283.282 2112.666 282.321 2111.082 C 281.981 2110.541 281.62 2109.94 281.3 2109.398 C 281.139 2109.158 281.019 2108.917 280.859 2108.677 C 280.038 2107.334 279.217 2105.991 278.416 2104.647 C 277.155 2102.603 275.933 2100.538 274.712 2098.453 C 274.672 2098.413 274.631 2098.333 274.591 2098.293 C 274.211 2097.632 273.771 2096.91 273.37 2096.208 C 273.33 2096.208 273.33 2096.208 273.33 2096.208 C 272.929 2095.567 272.589 2094.905 272.188 2094.224 C 271.828 2093.603 271.448 2092.961 271.087 2092.3 C 270.406 2091.197 269.746 2090.075 269.105 2088.972 C 359.335 2085.424 449.787 2088.691 539.616 2098.614 C 546.205 2099.315 552.753 2100.117 559.34 2100.899 C 559.34 2100.899 559.34 2100.899 559.38 2100.899 C 560.642 2101.059 561.904 2101.22 563.165 2101.38 C 566.91 2101.801 570.654 2102.282 574.419 2102.803 C 593.382 2105.249 612.326 2108.015 631.209 2111.082 C 763.09 2132.651 892.689 2169.093 1016.521 2220.008 C 1045.236 2231.975 1073.731 2244.644 1101.845 2257.994 C 1121.15 2267.195 1140.313 2276.717 1159.296 2286.579 C 1178.019 2296.301 1196.562 2306.324 1214.944 2316.727 C 1264.411 2344.645 1312.541 2374.904 1359.045 2407.527 C 1387.202 2427.28 1414.762 2447.9 1441.662 2469.392 C 1535.758 2543.941 1622.224 2627.971 1699.659 2719.839" fill="rgb(0,0,0)"/><path d=" M 1212.822 2733.73 C 1209.658 2733.269 1206.554 2732.788 1203.43 2732.267 C 1199.886 2731.686 1196.361 2731.125 1192.898 2730.503 C 1191.235 2730.222 1189.594 2729.942 1187.931 2729.621 C 1183.145 2728.839 1178.46 2727.977 1173.734 2727.055 C 1170.129 2726.434 1166.545 2725.712 1163.001 2725.051 C 1162.48 2724.93 1161.979 2724.85 1161.459 2724.73 C 1160.978 2724.65 1160.477 2724.53 1159.997 2724.449 C 1156.372 2723.748 1152.708 2722.986 1149.103 2722.244 C 1147.461 2721.924 1145.799 2721.563 1144.138 2721.222 C 1139.672 2720.3 1135.267 2719.318 1130.841 2718.376 C 1129.7 2718.095 1128.519 2717.854 1127.377 2717.574 C 1123.793 2716.792 1120.188 2715.97 1116.604 2715.128 C 1115.303 2714.828 1113.96 2714.547 1112.699 2714.226 C 1112.299 2713.485 1111.918 2712.763 1111.517 2712.021 C 1083.143 2658.941 1047.799 2608.587 1007.951 2561.721 C 928.113 2467.969 831.935 2386.385 727.547 2317.83 L 717.815 2311.375 L 707.903 2305.221 L 688.019 2292.933 L 667.754 2281.287 L 657.601 2275.494 L 647.269 2269.961 C 619.935 2254.987 591.6 2241.718 562.925 2229.329 C 534.21 2216.881 504.734 2206.257 474.917 2196.676 C 447.384 2187.856 419.409 2180.158 391.094 2174.004 C 388.731 2173.483 386.309 2172.982 383.946 2172.461 C 381.662 2171.98 379.34 2171.519 377.037 2171.038 C 359.816 2167.53 342.495 2164.523 325.053 2161.957 C 321.349 2161.396 317.684 2160.895 313.96 2160.414 C 313.92 2160.414 313.92 2160.414 313.92 2160.414 C 312.338 2158.128 310.856 2155.863 309.394 2153.578 L 309.354 2153.578 C 308.954 2153.037 308.593 2152.436 308.253 2151.874 C 307.813 2151.253 307.412 2150.611 307.031 2149.99 C 306.39 2149.088 305.81 2148.126 305.209 2147.224 C 332.502 2149.128 359.736 2152.075 386.869 2156.224 C 418.508 2160.855 449.946 2167.089 481.065 2174.866 C 512.163 2182.684 543.041 2191.604 573.297 2202.469 C 603.555 2213.253 633.632 2224.98 662.807 2238.611 L 673.821 2243.582 L 684.675 2248.914 L 706.401 2259.578 L 727.787 2270.904 L 738.44 2276.636 L 748.933 2282.63 C 860.41 2346.775 965.198 2424.01 1056.13 2518.043 C 1101.365 2565.109 1143.156 2616.325 1178.66 2672.913 C 1190.975 2692.497 1202.449 2712.723 1212.822 2733.73" fill="rgb(37,68,47)"/><path d=" M 1331.968 1546.806 C 1331.968 1598.823 1315.067 1654.89 1283.749 1710.737 C 1247.544 1775.343 1192.076 1839.588 1121.11 1896.777 C 1097 1916.201 1071.128 1934.843 1043.615 1952.343 C 1043.274 1952.584 1042.954 1952.764 1042.633 1953.004 C 1009.813 1973.872 974.71 1993.175 937.504 2010.515 C 932.838 2012.679 928.153 2014.804 923.427 2016.949 C 917.099 2019.755 910.711 2022.522 904.284 2025.228 C 853 2046.837 798.173 2064.657 740.423 2077.606 C 684.955 2090.075 626.723 2098.053 566.369 2100.618 C 564.027 2100.739 561.703 2100.819 559.38 2100.899 C 559.34 2100.899 559.34 2100.899 559.34 2100.899 C 556.657 2101.019 554.014 2101.14 551.37 2101.22 L 551.211 2101.22 C 473.656 2104.146 402.168 2103.786 336.327 2100.418 L 336.127 2100.418 C 314.601 2099.315 293.695 2097.892 273.37 2096.208 C 273.33 2096.208 273.33 2096.208 273.33 2096.208 C 272.929 2095.567 272.589 2094.905 272.188 2094.224 C 271.828 2093.603 271.448 2092.961 271.087 2092.3 C 270.406 2091.197 269.746 2090.075 269.105 2088.972 C 268.323 2087.669 267.563 2086.366 266.822 2085.063 C 266.462 2084.522 266.161 2083.961 265.841 2083.399 C 264.779 2081.555 263.698 2079.691 262.637 2077.807 C 262.597 2077.727 262.557 2077.686 262.516 2077.606 C 252.664 2060.387 243.193 2042.928 234.122 2025.228 C 232.7 2022.522 231.319 2019.796 229.937 2017.029 C 225.051 2007.347 220.265 1997.585 215.619 1987.763 C 212.855 1981.95 210.172 1976.157 207.49 1970.304 C 207.008 1969.281 206.548 1968.219 206.067 1967.177 C 251.784 1969.161 300.944 1968.8 353.688 1965.854 C 520.914 1956.492 666.332 1875.73 770.239 1768.788 C 830.153 1707.108 876.269 1636.689 904.764 1566.29 C 926.071 1513.651 937.504 1461.032 937.504 1412.033 L 937.504 1310.652 L 947.316 1284.392 L 961.133 1247.509 C 961.534 1247.629 961.914 1247.749 962.315 1247.91 C 1182.805 1318.209 1331.968 1391.577 1331.968 1546.806" fill="rgb(233,232,230)"/><path d=" M 706.201 811.503 L 672.319 811.503 C 677.846 799.475 680.97 786.085 680.97 771.953 C 680.97 719.715 638.658 677.359 586.474 677.359 C 569.012 677.359 552.672 682.13 538.635 690.389 C 517.429 640.857 468.289 606.158 411.039 606.158 C 348.742 606.158 296.038 647.231 278.477 703.819 C 268.984 700.03 258.632 697.866 247.779 697.866 C 201.983 697.866 164.857 735.05 164.857 780.893 C 164.857 791.718 166.98 802.021 170.744 811.503 L 124.247 811.503 C 102.58 811.503 85.039 829.082 85.039 850.751 L 85.039 877.091 C 85.039 898.76 102.58 916.32 124.247 916.32 L 706.201 916.32 C 727.847 916.32 745.389 898.76 745.389 877.091 L 745.389 850.751 C 745.389 829.082 727.847 811.503 706.201 811.503" fill="rgb(25,29,44)"/><path d=" M 706.201 772.013 L 672.319 772.013 C 677.846 759.986 680.97 746.596 680.97 732.464 C 680.97 680.226 638.658 637.87 586.474 637.87 C 569.012 637.87 552.672 642.641 538.635 650.899 C 517.429 601.367 468.289 566.669 411.039 566.669 C 348.742 566.669 296.038 607.742 278.477 664.33 C 268.984 660.541 258.632 658.376 247.779 658.376 C 201.983 658.376 164.857 695.56 164.857 741.404 C 164.857 752.229 166.98 762.532 170.744 772.013 L 124.247 772.013 C 102.58 772.013 85.039 789.593 85.039 811.262 L 85.039 837.602 C 85.039 859.271 102.58 876.83 124.247 876.83 L 706.201 876.83 C 727.847 876.83 745.389 859.271 745.389 837.602 L 745.389 811.262 C 745.389 789.593 727.847 772.013 706.201 772.013" fill="rgb(247,244,222)"/><path d=" M 2495.895 419.376 C 2495.895 367.859 2454.184 326.105 2402.721 326.105 C 2392.628 326.105 2382.916 327.728 2373.805 330.695 C 2357.806 290.304 2318.437 261.719 2272.381 261.719 C 2218.915 261.719 2174.461 300.246 2165.13 351.061 C 2152.214 342.522 2136.755 337.51 2120.114 337.51 C 2078.584 337.51 2044.361 368.521 2039.115 408.651 L 2009.418 408.651 C 1980.904 408.651 1957.795 431.784 1957.795 460.328 C 1957.795 488.873 1980.904 512.005 2009.418 512.005 L 2392.008 512.005 C 2395.532 512.406 2399.096 512.647 2402.721 512.647 C 2406.345 512.647 2409.909 512.406 2413.434 512.005 L 2413.834 512.005 C 2423.306 512.005 2432.157 509.399 2439.786 504.949 C 2472.786 490.597 2495.895 457.702 2495.895 419.376" fill="rgb(25,29,44)"/><path d=" M 2495.895 379.886 C 2495.895 328.37 2454.184 286.615 2402.721 286.615 C 2392.628 286.615 2382.916 288.239 2373.805 291.206 C 2357.806 250.814 2318.437 222.23 2272.381 222.23 C 2218.915 222.23 2174.461 260.757 2165.13 311.572 C 2152.214 303.032 2136.755 298.021 2120.114 298.021 C 2078.584 298.021 2044.361 329.031 2039.115 369.162 L 2009.418 369.162 C 1980.904 369.162 1957.795 392.294 1957.795 420.839 C 1957.795 449.384 1980.904 472.516 2009.418 472.516 L 2392.008 472.516 C 2395.532 472.917 2399.096 473.157 2402.721 473.157 C 2406.345 473.157 2409.909 472.917 2413.434 472.516 L 2413.834 472.516 C 2423.306 472.516 2432.157 469.91 2439.786 465.46 C 2472.786 451.107 2495.895 418.213 2495.895 379.886" fill="rgb(247,244,222)"/><path d=" M 1199.285 2103.204 C 1191.916 2103.204 1164.983 2103.204 1157.614 2103.204 C 1126.817 2103.204 1101.866 2156.284 1101.866 2221.792 C 1101.866 2287.301 1126.817 2340.401 1157.614 2340.401 C 1164.983 2340.401 1191.916 2340.401 1199.285 2340.401 C 1230.063 2340.401 1255.014 2287.301 1255.014 2221.792 C 1255.014 2156.284 1230.063 2103.204 1199.285 2103.204 Z " fill="rgb(36,35,34)"/><path d=" M 1375.601 2169.895 C 1366.47 2169.895 1333.129 2169.895 1324.018 2169.895 C 1285.912 2169.895 1255.014 2235.624 1255.014 2316.707 C 1255.014 2397.771 1285.912 2463.499 1324.018 2463.499 C 1333.129 2463.499 1366.47 2463.499 1375.601 2463.499 C 1413.688 2463.499 1444.586 2397.771 1444.586 2316.707 C 1444.586 2235.624 1413.688 2169.895 1375.601 2169.895 Z " fill="rgb(36,35,34)"/><path d=" M 2622.41 1704.843 C 2618.285 1680.588 2613.179 1655.331 2607.272 1629.332 C 2606.931 1627.909 2606.611 1626.466 2606.27 1625.003 C 2597.32 1586.055 2586.526 1545.463 2574.431 1504.089 C 2510.993 1286.958 2411.651 1048.078 2349.775 907.219 C 2348.173 903.531 2346.592 899.882 2345.01 896.314 C 2335.038 873.743 2326.207 854.019 2318.758 837.602 C 2317.936 835.798 2317.135 833.994 2316.334 832.27 C 2302.237 801.32 2276.085 777.526 2243.986 766.441 L 2077.722 710.715 C 1870.388 641.237 1647.395 633.52 1435.795 688.524 L 1216.586 745.493 C 1205.172 748.46 1194.339 752.89 1184.287 758.563 C 1157.213 773.757 1135.868 798.092 1124.414 827.759 L 1087.168 924.298 L 1071.568 964.669 L 977.033 1209.804 L 968.863 1230.971 L 962.315 1247.91 L 953.284 1271.283 L 953.284 1430.362 C 953.284 1475.685 942.871 1524.255 923.467 1572.965 C 895.453 1643.244 848.615 1713.864 787.12 1775.663 C 682.572 1880.741 535.592 1960.321 366.404 1969.482 C 309.314 1972.549 256.409 1972.749 207.49 1970.304 C 210.172 1976.157 212.855 1981.95 215.619 1987.763 C 220.265 1997.585 225.051 2007.347 229.937 2017.029 C 231.319 2019.796 232.7 2022.522 234.122 2025.228 C 243.193 2042.928 252.664 2060.387 262.516 2077.606 C 262.557 2077.686 262.597 2077.727 262.637 2077.807 C 263.698 2079.691 264.779 2081.555 265.841 2083.399 C 266.161 2083.961 266.462 2084.522 266.822 2085.063 C 267.563 2086.366 268.323 2087.669 269.105 2088.972 C 269.746 2090.075 270.406 2091.197 271.087 2092.3 C 271.448 2092.961 271.828 2093.603 272.188 2094.224 C 272.589 2094.905 272.929 2095.567 273.33 2096.208 C 273.33 2096.208 273.33 2096.208 273.37 2096.208 C 273.771 2096.91 274.211 2097.632 274.591 2098.293 C 274.631 2098.333 274.672 2098.413 274.712 2098.453 C 280.279 2098.935 285.886 2099.356 291.512 2099.756 C 300.483 2100.418 309.554 2100.979 318.785 2101.5 C 391.015 2105.449 470.312 2104.808 557.258 2101.621 C 559.221 2101.54 561.203 2101.46 563.165 2101.38 C 568.812 2101.18 574.499 2100.939 580.166 2100.699 C 641.982 2098.133 701.475 2090.115 758.165 2077.606 C 816.977 2064.657 872.765 2046.837 924.849 2025.228 C 934.461 2021.299 943.932 2017.19 953.284 2012.96 L 953.284 2012.96 L 953.284 2059.365 L 1163.902 1940.276 L 1163.902 2203.952 L 2546.717 2203.952 L 2638.27 2040.482 C 2638.27 2040.482 2666.144 1962.286 2622.41 1704.843" fill="rgb(211,89,44)"/><path d=" M 2512.495 1746.277 C 2510.453 1746.517 2508.43 1746.678 2506.348 1746.778 C 2252.897 1761.311 1973.194 1752.932 1661.212 1735.793 C 1505.521 1727.254 1365.549 1636.028 1293.24 1495.249 C 1208.336 1329.831 1132.483 1154.999 1071.568 964.669 L 1087.168 924.298 L 1124.414 827.759 C 1135.868 798.092 1157.213 773.757 1184.287 758.563 C 1188.312 757.08 1192.437 755.756 1196.622 754.654 L 1420.997 695.26 C 1637.643 637.89 1865.942 645.968 2078.203 718.392 L 2248.351 776.483 C 2278.629 787.127 2303.739 809.017 2318.758 837.602 C 2320.099 840.067 2321.281 842.573 2322.442 845.099 C 2328.89 859.511 2336.5 876.75 2345.01 896.314 C 2346.592 899.882 2348.173 903.531 2349.775 907.219 C 2390.906 1001.993 2451.16 1146.46 2506.728 1300.97 C 2530.818 1367.853 2554.046 1436.617 2574.431 1504.089 C 2585.105 1539.429 2595.017 1574.328 2603.887 1608.465 C 2605.689 1615.421 2606.811 1622.417 2607.272 1629.332 C 2611.196 1686.742 2570.746 1740.243 2512.495 1746.277" fill="rgb(200,124,20)"/><path d=" M 1689.025 1779.793 C 1689.025 1779.793 1440.781 1672.911 1444.586 1677.501 C 1469.617 1707.63 1557.164 1804.629 1721.085 1812.888 C 1916.585 1822.75 2518.763 1832.412 2554.847 1822.249 C 2590.931 1812.086 2624.793 1765.3 2624.793 1725.129 L 2527.874 1775.363 L 1864.38 1775.363" fill="rgb(25,29,44)"/><path d=" M 2670.81 2201.507 C 2670.81 2291.651 2333.476 2364.736 1917.366 2364.736 C 1501.235 2364.736 1163.902 2291.651 1163.902 2201.507 C 1163.902 2111.363 1501.235 2038.297 1917.366 2038.297 C 2333.476 2038.297 2670.81 2111.363 2670.81 2201.507 Z " fill="rgb(40,30,28)"/><path d=" M 2638.249 2040.502 C 2638.249 2040.502 2656.412 2065.94 2647.02 2109.719 C 2647.02 2109.719 2680.401 2151.313 2670.81 2201.507 C 2661.217 2251.7 2450.359 2253.624 2450.359 2253.624 L 2477.212 2075.181 L 2638.249 2040.502 Z " fill="rgb(62,41,38)"/><path d=" M 1927.498 2092.941 C 1713.756 2092.941 1529.39 2076.644 1381.108 2055.677 C 1514.752 2095.006 1715.278 2123.41 1938.331 2123.41 C 2417.659 2123.41 2667.546 2084.362 2671.651 1998.788 C 2675.555 1983.012 2670.71 1977.299 2667.865 1964.19 C 2622.91 2041.064 2521.567 2092.941 1927.498 2092.941" fill="rgb(25,29,44)"/><path d=" M 2628.538 1658.999 C 2603.327 1563.724 2569.485 1461.773 2533.661 1364.036 C 2511.574 1303.776 2488.746 1245.123 2466.739 1190.62 C 2428.272 1090.614 2389.645 998.626 2358.686 927.525 C 2341.906 888.938 2327.348 856.524 2316.334 832.27 C 2312.41 823.69 2307.584 815.652 2301.897 808.275 C 2287.259 789.092 2267.174 774.439 2243.986 766.441 L 2077.722 710.715 C 1870.388 641.237 1647.395 633.52 1435.795 688.524 L 1304.494 722.662 L 1216.586 745.493 C 1189.313 752.569 1165.383 767.884 1147.622 788.791 C 1137.85 800.237 1129.94 813.387 1124.414 827.759 L 1087.168 924.298 C 1147.842 1115.631 1224.616 1290.666 1310.982 1455.84 C 1374.375 1577.072 1491.037 1659.964 1624.234 1681.602 C 1639.433 1684.071 1654.848 1685.742 1670.423 1686.582 C 1676.45 1686.883 1682.457 1687.243 1688.445 1687.544 C 1877.85 1697.573 2054.995 1704.24 2221.341 1704.24 C 2316.315 1704.24 2407.769 1702.067 2495.975 1697.106 C 2497.977 1697.006 2500.02 1696.845 2501.962 1696.645 C 2543.754 1692.395 2576.153 1663.59 2588.909 1626.787 C 2590.23 1631.999 2591.552 1637.19 2592.834 1642.342 C 2598.24 1664.251 2592.533 1687.745 2576.895 1703.941 C 2554.647 1726.973 2524.11 1741.887 2490.008 1743.831 C 2314.255 1753.748 2125.547 1752.511 1921.731 1745.035 C 1839.639 1742.024 1755.095 1738.001 1667.96 1733.288 C 1603.563 1729.806 1541.931 1715.739 1486.947 1689.235 C 1445.689 1669.348 1408.173 1642.458 1376.042 1607.784 C 1451.474 1716.55 1573.624 1773.919 1707.729 1781.136 C 2012.482 1797.553 2285.677 1805.591 2533.261 1791.68 C 2535.283 1791.559 2537.286 1791.399 2539.268 1791.199 C 2603.046 1784.704 2644.958 1721.04 2628.538 1658.999" fill="rgb(247,173,60)"/><path d=" M 1688.445 1687.544 C 1682.457 1687.243 1676.45 1686.883 1670.423 1686.582 C 1518.356 1678.383 1381.609 1590.906 1310.982 1455.84 C 1224.616 1290.666 1147.842 1115.631 1087.168 924.298 L 1124.414 827.759 C 1129.94 813.387 1137.85 800.237 1147.602 788.791 C 1165.383 767.884 1189.313 752.569 1216.586 745.493 L 1304.494 722.662 L 1554.421 1297.542 L 1688.445 1687.544" fill="rgb(243,188,49)"/><path d=" M 2405.885 1104.064 L 2358.686 927.525 C 2341.906 888.938 2327.348 856.524 2316.334 832.27 C 2312.41 823.69 2307.584 815.652 2301.897 808.275 C 2292.025 800.678 2280.951 794.665 2269.077 790.315 C 2260.426 784.221 2250.954 779.29 2240.842 775.822 L 2074.598 720.076 C 1959.858 681.629 1840.351 662.145 1719.383 662.145 C 1624.586 662.145 1530.011 674.232 1438.258 698.086 L 1219.049 755.055 C 1195.961 761.048 1175.336 773.336 1159.096 790.736 C 1191.415 868.511 1225.697 941.717 1261.382 1009.29 C 1276.6 1039.077 1292.279 1068.344 1308.559 1096.908 C 1382.71 1227.062 1519.478 1309.108 1669.041 1314.38 C 1870.288 1321.45 2064.066 1322.835 2248.051 1316.765 C 2356.844 1313.177 2434.039 1209.322 2405.885 1104.064" fill="rgb(234,103,55)"/><path d=" M 1719.383 652.262 C 1624.186 652.262 1528.889 664.33 1435.795 688.524 L 1216.586 745.493 C 1189.313 752.569 1165.383 767.884 1147.602 788.791 C 1189.033 889.078 1234.629 984.554 1285.511 1073.856 C 1359.662 1204.01 1496.429 1286.056 1646.013 1291.308 C 1760.934 1295.357 1873.432 1297.542 1983.066 1297.542 C 2065.387 1297.542 2146.106 1296.299 2225.023 1293.693 C 2333.796 1290.105 2410.991 1186.25 2382.857 1081.012 L 2316.334 832.27 C 2302.237 801.32 2276.085 777.526 2243.986 766.441 L 2077.722 710.715 C 1961.62 671.807 1840.592 652.262 1719.383 652.262 Z  M 1719.403 672.007 C 1839.29 672.007 1957.755 691.331 2071.475 729.437 L 2237.558 785.123 C 2263.911 794.204 2285.757 813.808 2297.712 839.025 L 2363.793 1086.124 C 2375.627 1130.344 2366.777 1176.809 2339.543 1213.572 C 2312.229 1250.435 2270.238 1272.445 2224.362 1273.969 C 2147.468 1276.494 2066.268 1277.797 1983.066 1277.797 C 1877.176 1277.797 1764.017 1275.693 1646.713 1271.583 C 1576.548 1269.118 1507.724 1248.691 1447.65 1212.51 C 1387.456 1176.248 1337.315 1124.931 1302.632 1064.074 C 1256.295 982.73 1211.941 891.584 1170.71 792.981 C 1184.928 779.33 1202.309 769.608 1221.533 764.617 L 1440.741 707.648 C 1531.672 683.994 1625.428 672.007 1719.403 672.007 L 1719.403 672.007" fill="rgb(243,188,49)"/><path d=" M 1850.864 1629.112 L 1639.785 1629.112 C 1571.161 1629.112 1488.82 1580.923 1488.82 1521.488 L 1488.82 1521.488 L 1928.099 1521.488 L 1908.895 1585.814 C 1901.246 1611.512 1877.637 1629.112 1850.864 1629.112" fill="rgb(25,29,44)"/><path d=" M 2216.693 1629.112 L 2398.115 1629.112 C 2457.107 1629.112 2527.874 1580.923 2527.874 1521.488 L 2527.874 1521.488 L 2150.291 1521.488 L 2166.811 1585.814 C 2173.379 1611.512 2193.665 1629.112 2216.693 1629.112 Z " fill="rgb(25,29,44)"/><path d=" M 2027.621 1177.23 L 1790.21 1177.23 C 1661.452 1177.23 1546.851 1095.024 1505.961 972.808 C 1491.163 928.587 1477.166 884.187 1462.588 837.962 C 1662.593 779.831 1869.186 774.86 2084.25 837.962 C 2122.857 896.034 2143.683 953.905 2157.54 1015.023 C 2176.363 1098.171 2112.785 1177.23 2027.621 1177.23 Z " fill="rgb(25,29,44)"/><path d=" M 1564.353 980.685 C 1550.876 943.561 1538.121 906.297 1524.864 867.489 C 1694.012 822.147 1868.366 815.371 2049.248 857.046 C 2049.087 856.805 2048.927 856.545 2048.767 856.304 C 1859.034 802.442 1676.75 806.672 1500.294 856.304 C 1513.15 895.793 1525.505 933.679 1538.561 971.444 C 1570.461 1063.653 1653.121 1129.141 1750.301 1143.133 C 1664.416 1121.203 1593.648 1061.328 1564.353 980.685" fill="rgb(253,251,236)"/><path d=" M 1042.653 2201.507 C 1042.653 2231.194 1030.418 2255.248 1015.32 2255.248 C 1000.221 2255.248 987.966 2231.194 987.966 2201.507 C 987.966 2171.839 1000.221 2147.785 1015.32 2147.785 C 1030.418 2147.785 1042.653 2171.839 1042.653 2201.507 Z " fill="rgb(105,101,53)"/><path d=" M 941.79 2178.394 C 941.79 2201.446 932.278 2220.149 920.543 2220.149 C 908.809 2220.149 899.297 2201.446 899.297 2178.394 C 899.297 2155.342 908.809 2136.64 920.543 2136.64 C 932.278 2136.64 941.79 2155.342 941.79 2178.394 Z " fill="rgb(105,101,53)"/><path d=" M 866.717 2165.225 C 866.717 2182.463 859.609 2196.435 850.838 2196.435 C 842.068 2196.435 834.959 2182.463 834.959 2165.225 C 834.959 2147.986 842.068 2134.014 850.838 2134.014 C 859.609 2134.014 866.717 2147.986 866.717 2165.225 Z " fill="rgb(105,101,53)"/><path d=" M 1028.976 2201.507 C 1028.976 2231.194 1016.741 2255.248 1001.643 2255.248 C 986.545 2255.248 974.289 2231.194 974.289 2201.507 C 974.289 2171.839 986.545 2147.785 1001.643 2147.785 C 1016.741 2147.785 1028.976 2171.839 1028.976 2201.507 Z " fill="rgb(36,35,34)"/><path d=" M 928.113 2178.394 C 928.113 2201.446 918.601 2220.149 906.867 2220.149 C 895.133 2220.149 885.621 2201.446 885.621 2178.394 C 885.621 2155.342 895.133 2136.64 906.867 2136.64 C 918.601 2136.64 928.113 2155.342 928.113 2178.394 Z " fill="rgb(36,35,34)"/><path d=" M 853.04 2165.225 C 853.04 2182.463 845.932 2196.435 837.162 2196.435 C 828.391 2196.435 821.282 2182.463 821.282 2165.225 C 821.282 2147.986 828.391 2134.014 837.162 2134.014 C 845.932 2134.014 853.04 2147.986 853.04 2165.225 Z " fill="rgb(36,35,34)"/><path d=" M 1124.673 2045.073 L 953.284 2088.832 L 1127.938 2013.501 L 1124.673 2045.073 Z " fill="rgb(77,83,49)"/><path d=" M 917.5 2088.832 L 721.099 2117.938 L 918.421 2067.544 L 917.5 2088.832 Z " fill="rgb(77,83,49)"/><mask id="_mask_IhP6mPDUkCAWrL7cfSWwZd1gUYSVDqrk" x="-200%" y="-200%" width="400%" height="400%"><rect x="-200%" y="-200%" width="400%" height="400%" style="fill:white;"/><path d=" M 2624.773 2215.939 C 2626.756 2263.286 2358.246 2312.979 2025.058 2326.91 C 1691.849 2340.842 1420.136 2313.74 1418.174 2266.373 C 1416.191 2219.026 1738.446 2174.766 2071.634 2160.835 C 2404.843 2146.903 2622.791 2168.572 2624.773 2215.939" fill="black" stroke="none"/></mask><path d=" M 2624.773 2215.939 C 2626.756 2263.286 2358.246 2312.979 2025.058 2326.91 C 1691.849 2340.842 1420.136 2313.74 1418.174 2266.373 C 1416.191 2219.026 1738.446 2174.766 2071.634 2160.835 C 2404.843 2146.903 2622.791 2168.572 2624.773 2215.939" fill="rgb(200,124,20)"/><path d=" M 2624.773 2215.939 C 2626.756 2263.286 2358.246 2312.979 2025.058 2326.91 C 1691.849 2340.842 1420.136 2313.74 1418.174 2266.373 C 1416.191 2219.026 1738.446 2174.766 2071.634 2160.835 C 2404.843 2146.903 2622.791 2168.572 2624.773 2215.939" fill="rgb(200,124,20)" mask="url(#_mask_IhP6mPDUkCAWrL7cfSWwZd1gUYSVDqrk)" vector-effect="non-scaling-stroke" stroke-width="0.267" stroke="rgb(244,170,61)" stroke-linejoin="miter" stroke-linecap="butt" stroke-miterlimit="4"/><path d=" M 2612.818 2154.741 C 2612.818 2154.741 2377.509 2114.229 2050.789 2126.236 C 1724.049 2138.223 1496.249 2180.238 1496.249 2180.238 C 1496.249 2180.238 1705.986 2126.236 1547.212 2091.718 C 1547.212 2091.718 2070.273 2114.229 2214.15 2103.725 C 2358.026 2093.222 2525.891 2094.725 2632.302 2030.219 C 2632.302 2030.219 2542.372 2081.214 2557.35 2108.216 C 2572.348 2135.237 2612.818 2154.741 2612.818 2154.741" fill="rgb(104,66,12)"/><path d=" M 983.441 1964.19 L 979.656 1293.292 L 1021.067 1178.252 L 983.441 1964.19 Z " fill="rgb(61,42,38)"/><path d=" M 749.213 1852.317 L 759.085 2085.043 L 739.361 2085.043 L 749.213 1852.317 Z " fill="rgb(25,29,44)"/><path d=" M 953.284 1450.047 L 963.156 2080.553 L 943.432 2080.553 L 953.284 1450.047 Z " fill="rgb(25,29,44)"/><path d=" M 1163.902 1450.047 L 1177.719 2269.641 L 1150.105 2269.641 L 1163.902 1450.047 Z " fill="rgb(25,29,44)"/><path d=" M 1193.799 1669.363 L 1249.347 2243.622 L 1205.773 2220.149 L 1193.799 1669.363 Z " fill="rgb(228,212,164)"/><path d=" M 559.861 1957.354 L 565.788 2117.938 L 553.954 2117.938 L 559.861 1957.354 Z " fill="rgb(25,29,44)"/><path d=" M 397.402 1996.082 L 401.347 2117.938 L 393.457 2117.938 L 397.402 1996.082 Z " fill="rgb(25,29,44)"/><path d=" M 920.303 1807.576 L 893.431 1828.703 L 893.431 1694.56 L 920.303 1649.037 L 920.303 1807.576" fill="rgb(25,29,44)"/><path d=" M 870.021 1848.308 L 850.818 1867.19 L 850.818 1755.498 L 870.021 1730.181 L 870.021 1848.308 Z " fill="rgb(25,29,44)"/><path d=" M 827.429 1881.964 L 812.071 1894.191 L 812.071 1797.272 L 827.429 1780.595 L 827.429 1881.964 Z " fill="rgb(25,29,44)"/><path d=" M 789.823 1907.682 L 778.309 1916.221 L 778.309 1835.138 L 789.823 1822.249 L 789.823 1907.682 Z " fill="rgb(25,29,44)"/><path d=" M 719.777 1944.505 L 692.904 1954.528 L 692.904 1890.844 L 719.777 1869.235 L 719.777 1944.505 Z " fill="rgb(25,29,44)"/><path d=" M 669.496 1963.829 L 650.312 1972.809 L 650.312 1919.769 L 669.496 1907.762 L 669.496 1963.829 Z " fill="rgb(25,29,44)"/><path d=" M 626.904 1979.805 L 611.544 1985.618 L 611.544 1939.614 L 626.904 1931.676 L 626.904 1979.805 Z " fill="rgb(25,29,44)"/><path d=" M 589.297 1992.033 L 577.783 1996.082 L 577.783 1957.595 L 589.297 1951.461 L 589.297 1992.033 Z " fill="rgb(25,29,44)"/><path d=" M 539.737 2005.463 L 516.168 2007.588 L 518.11 1982.571 L 542.04 1975.896 L 539.737 2005.463 Z " fill="rgb(25,29,44)"/><path d=" M 495.622 2009.653 L 478.722 2011.878 L 480.344 1991.051 L 497.325 1987.623 L 495.622 2009.653 Z " fill="rgb(25,29,44)"/><path d=" M 458.256 2013.06 L 444.78 2014.303 L 446.182 1996.242 L 459.718 1994.158 L 458.256 2013.06" fill="rgb(25,29,44)"/><path d=" M 425.316 2015.325 L 415.224 2016.147 L 416.385 2001.013 L 426.558 1999.389 L 425.316 2015.325" fill="rgb(25,29,44)"/><path d=" M 364.241 2024.326 L 340.753 2022.983 L 344.116 2004.681 L 368.206 2002.677 L 364.241 2024.326 Z " fill="rgb(25,29,44)"/><path d=" M 320.287 2021.98 L 303.407 2021.56 L 306.19 2006.305 L 323.231 2005.864 L 320.287 2021.98" fill="rgb(25,29,44)"/><path d=" M 283.042 2019.896 L 269.625 2019.154 L 272.048 2005.944 L 285.585 2006.065 L 283.042 2019.896" fill="rgb(25,29,44)"/><path d=" M 250.282 2017.51 L 240.23 2016.869 L 242.252 2005.804 L 252.424 2005.844 L 250.282 2017.51" fill="rgb(25,29,44)"/><path d=" M 1660.03 1608.265 L 1740.369 1608.265 L 1718.042 1540.512 L 1637.663 1540.512 L 1660.03 1608.265" fill="rgb(234,233,231)"/><path d=" M 1613.413 1540.512 L 1539.282 1540.512 C 1539.282 1575.551 1591.026 1604.396 1635.641 1607.904 L 1613.413 1540.512 Z " fill="rgb(230,230,0)"/><path d=" M 2375.247 1608.265 L 2294.908 1608.265 L 2317.236 1540.512 L 2397.594 1540.512 L 2375.247 1608.265" fill="rgb(206,206,206)"/><path d=" M 2421.864 1540.512 L 2495.975 1540.512 C 2495.975 1575.551 2444.251 1604.396 2399.617 1607.904 L 2421.864 1540.512 Z " fill="rgb(230,199,0)"/><path d=" M 2619.447 2014.443 C 2619.447 2014.443 2625.133 1946.109 2619.447 1873.204 C 2613.74 1800.279 2599.622 1772.777 2599.622 1772.777 C 2599.622 1772.777 2587.147 1801.361 2523.849 1813.75 C 2460.552 1826.138 2490.909 1825.576 2490.909 1825.576 C 2490.909 1825.576 2552.624 1824.213 2565.08 1875.65 C 2583.422 1951.461 2560.174 2038.297 2433.799 2085.043 L 2576.053 2055.737 L 2619.447 2014.443 Z " fill="rgb(202,126,20)"/><path d=" M 2626.095 1727.294 C 2625.594 1728.116 2625.093 1728.938 2624.553 1729.74 C 2623.411 1748.161 2615.601 1767.585 2603.968 1784.042 C 2608.593 1798.094 2615.762 1826.198 2619.447 1873.204 C 2625.133 1946.109 2619.447 2014.443 2619.447 2014.443 L 2617.604 2016.187 C 2628.758 2009.151 2637.829 2001.695 2645.479 1993.897 C 2648.902 1948.414 2648.241 1865.426 2626.095 1727.294 Z " fill="rgb(228,212,164)"/></g></g></svg>