<?xml version="1.0" encoding="UTF-8" standalone="no"?><!-- Generator: Gravit.io --><svg xmlns="http://www.w3.org/2000/svg" xmlns:xlink="http://www.w3.org/1999/xlink" style="isolation:isolate" viewBox="0 0 1000 1000" width="1000pt" height="1000pt"><defs><clipPath id="_clipPath_wAfPKPVrjgdsaVs8MDurDsrDehI93Qlm"><rect width="1000" height="1000"/></clipPath></defs><g clip-path="url(#_clipPath_wAfPKPVrjgdsaVs8MDurDsrDehI93Qlm)"><rect width="1000" height="1000" style="fill:rgb(0,0,0)" fill-opacity="0"/><ellipse vector-effect="non-scaling-stroke" cx="500.0133924984157" cy="500.0000000000002" rx="499.986607501585" ry="500.0000000000001" fill="rgb(255,255,255)"/><g><radialGradient id="_rgradient_0" fx="0.5030748786016731" fy="0.49843208983675136" cx="0.5" cy="0.5" r="0.5" gradientTransform="matrix(1374.565,295.757,-354.565,1933.243,13.619,-569.58)" gradientUnits="userSpaceOnUse"><stop offset="0%" stop-opacity="1" style="stop-color:rgb(255,0,0)"/><stop offset="100%" stop-opacity="1" style="stop-color:rgb(255,238,0)"/></radialGradient><path d=" M 232.455 146 C 263.514 249.915 228.144 299.309 126.256 294.093 C 167.004 375.123 148.846 440.84 71.695 491.157 C 135.774 530.629 147.171 576.04 105.796 627.304 C 171.547 649.05 189.763 691.298 160.356 753.963 C 200.383 768.211 199.303 790.696 178.083 866.054 L 232.455 904.979 L 305.716 939.529 L 416.597 270.71 L 232.455 146 Z " fill="url(#_rgradient_0)"/><path d=" M 583.987 964.78 C 427.328 1000.262 309.375 973.708 230.101 885.09 C 238.216 838.817 245.884 769.554 245.386 717.271 C 222.595 718.878 204.824 755.614 160.951 753.131 C 194.586 713.873 169.883 677.511 245.386 608.032 C 192.407 585.916 173.368 626.478 104.944 627.31 C 189.924 551.976 168.401 499.825 252.009 490.719 C 177.507 457.607 124.528 504.792 70.721 490.719 C 157.64 452.64 143.567 375.655 278.441 405.456 C 247.97 345.892 170.812 351.183 125.568 294.269 C 223.125 318.375 231.375 285 358.045 318.537 C 342.118 259.266 321.826 207.348 237.155 157.436 C 232.189 151.571 230.903 147.902 233.24 146.369 Q 370.616 174.948 404.324 224.168 C 438.883 274.648 481.175 313.693 545.112 351 C 528.903 333.386 517.186 306.676 509.77 270.677 C 542.702 305.818 559.004 325.269 577.241 334.935 C 610.248 352.43 644.134 369.599 683.267 386.342 C 708.794 397.263 677.242 439.154 689.692 447.387 L 760.376 479.516 C 786.635 488.697 812.371 481.232 837.486 457.026 C 862.504 493.775 853.334 516.864 837.486 540.561 C 829.69 552.219 892.507 585.943 882.467 595.181 C 862.413 613.63 851.069 618.896 850.338 633.735 C 858.552 647.69 855.817 658.202 844.79 670.351 L 837.486 662.652 C 828.784 678.306 823.812 685.835 802.495 697.994 C 811.023 677.459 805.358 665.719 805.357 649.8 C 796.424 653.446 786.097 656.48 774.35 655.451 C 778.013 646.741 778.054 635.43 774.35 624.822 C 763.404 628.796 751.547 630.717 738.754 630.56 C 742.185 622.077 742.25 612.502 738.754 601.644 C 726.138 605.808 715.147 607.945 705.757 608.032 C 710.79 591.814 710.79 586.226 689.692 575.903 C 610.775 544.979 562.822 520.169 509.77 524.497 C 577.642 572.69 604.742 617.376 663.989 662.652 L 675.014 672.835 C 680.844 677.451 688.941 682.158 695.787 680.285 C 697.044 688.639 695.319 692.343 694.053 697.994 C 703.759 699.5 713.145 703.816 720.543 697.994 C 722.881 704.965 721.55 709.855 722.198 717.271 C 729.639 718.073 740.004 719.176 747.525 714.058 C 749.992 721.547 747.631 727.423 747.525 734.92 C 757.838 731.795 770.726 729.172 781.8 717.271 C 781.466 734.983 771.822 746.79 760.376 759.039 C 730.657 796.791 661.58 769.882 609.37 810.445 C 610.37 782.753 620.041 764.579 644.712 736.549 C 639.089 730.524 634.539 728.013 629.301 726.91 C 596.317 723.898 550.133 699.447 509.77 669.077 C 484.066 686.213 489.454 714.09 500.131 733.336 C 542.257 803.415 566.023 866.98 576.21 924.015 C 576.743 926.996 583.528 961.835 583.987 964.78 Z " fill="rgb(55,55,55)"/><linearGradient id="_lgradient_0" x1="-0.009073227057670663" y1="-0.08539726256693436" x2="1.1820720286516497" y2="2.6750709563946042" gradientTransform="matrix(500.15,-58.209,19.169,164.707,322.842,521.537)" gradientUnits="userSpaceOnUse"><stop offset="0%" stop-opacity="1" style="stop-color:rgb(255,174,0)"/><stop offset="100%" stop-opacity="1" style="stop-color:rgb(255,0,0)"/></linearGradient><path d=" M 350.044 553.574 Q 346.73 548.271 344.813 545.537 Q 337.979 535.797 322.842 521.537 C 336.722 524.875 352.923 530.903 362.008 544.819 C 368.032 554.045 374.879 562.314 382.462 569.16 C 386.602 572.898 390.895 576.268 395.28 579.251 C 400.318 582.677 405.229 583.676 410.483 586.293 C 419.506 590.786 428.878 593.79 438.313 595.091 C 448.723 596.527 458.928 594.601 469.213 593.357 C 478.116 592.279 486.902 590.464 495.574 587.931 C 504.757 585.249 513.809 581.938 522.651 577.954 C 541.464 569.477 559.531 558.853 576.726 546.096 C 584.886 539.976 592.948 533.536 600.817 526.788 C 605.692 522.663 610.607 518.616 615.567 514.688 C 620.44 510.812 625.447 507.292 630.62 504.125 C 635.907 500.863 641.444 498.15 647.114 496.042 C 653.235 493.799 659.539 492.321 665.928 491.577 C 671.462 490.975 677.079 490.817 682.691 491.157 C 689.182 491.56 695.705 492.497 702.157 493.897 C 709.85 496.6 717.324 500.364 724.534 505.067 C 731.113 509.431 737.456 514.443 743.532 520.106 C 749.334 525.553 754.959 531.351 760.376 537.505 C 765.647 543.469 770.844 549.607 775.954 555.796 C 780.447 561.23 784.957 566.538 789.553 571.794 C 794.048 576.979 798.704 581.939 803.459 586.68 C 808.24 591.378 813.193 595.682 818.318 599.595 C 823.576 603.575 829.084 607.029 834.74 609.887 C 845.213 623.323 843.665 629.722 829.987 628.972 C 823.532 625.669 817.251 621.726 811.242 617.171 C 805.502 612.793 799.995 608.015 794.683 602.759 C 789.578 597.686 784.603 592.391 779.789 586.871 C 775.081 581.462 770.46 576.001 765.861 570.456 C 760.862 564.419 755.811 558.471 750.678 552.615 C 745.66 546.953 740.487 541.557 735.11 536.557 C 729.765 531.553 724.143 527.12 718.342 523.286 C 712.378 519.388 706.192 516.261 699.815 513.901 C 694.23 512.731 688.601 511.98 682.958 511.643 C 678.031 511.307 673.126 511.423 668.272 511.988 C 662.805 512.624 657.444 513.91 652.185 515.804 C 647.29 517.615 642.518 519.949 637.957 522.755 C 633.225 525.705 628.65 528.926 624.2 532.422 C 619.353 536.254 614.578 540.161 609.847 544.186 C 601.755 551.167 593.467 557.799 585.019 564.118 C 567.077 577.417 548.172 588.568 528.522 597.375 C 519.172 601.565 509.585 605.089 499.896 607.945 C 490.625 610.679 481.194 612.575 471.649 613.756 C 460.355 615.153 448.885 615.029 437.459 613.433 C 426.635 611.921 415.88 608.64 405.595 603.408 C 399.771 600.446 394.068 597.067 388.481 593.321 C 383.382 589.902 378.443 586.072 373.748 581.757 C 364.998 573.716 357.012 564.221 350.044 553.574 Z " fill="url(#_lgradient_0)"/><path d=" M 620.161 404.803 C 630.531 409.405 641.021 413.613 652.185 417.76 C 647.072 442.5 639.3 456.838 628.969 454.242 C 613.061 449.425 599.182 443.518 586.369 437.301 C 589.92 435.57 593.485 433.471 596.982 431.034 C 608.09 423.293 616.25 413.721 620.161 404.803 Z  M 579.887 384.28 C 576.375 382.21 572.86 380.135 569.271 377.962 C 526.423 387.911 493.591 388.389 479.725 397.861 C 505.471 400.381 525.901 407.985 545.607 417.216 C 549.495 408.229 557.701 398.556 568.907 390.747 C 572.524 388.227 576.215 386.067 579.887 384.28 Z " fill-rule="evenodd" fill="rgb(255,255,255)"/></g><g><path d=" M 0.027 500 C 0.027 224.042 224.063 0 500.013 0 C 775.964 0 1000 224.042 1000 500 C 1000 775.958 775.964 1000 500.013 1000 C 224.063 1000 0.027 775.958 0.027 500 Z  M 40 499.987 C 40 246.106 246.119 39.987 500 39.987 C 753.881 39.987 960 246.106 960 499.987 C 960 753.868 753.881 959.987 500 959.987 C 246.119 959.987 40 753.868 40 499.987 Z " fill-rule="evenodd" fill="rgb(55,55,55)"/></g></g></svg>